<svg width="96" height="96" viewBox="0 0 96 96" fill="none" xmlns="http://www.w3.org/2000/svg"><path opacity=".7" d="M36 52a4 4 0 0 0 4 4h16a4 4 0 0 0 4-4v-8a4 4 0 0 1-4 4H40a4 4 0 0 1-4-4v8Z" fill="#8B3DFF"/><path opacity=".5" d="M36 60a4 4 0 0 0 4 4h16a4 4 0 0 0 4-4v-8a4 4 0 0 1-4 4H40a4 4 0 0 1-4-4v8Z" fill="#8B3DFF"/><path opacity=".3" d="M60 72V60a4 4 0 0 1-4 4H40a4 4 0 0 1-4-4v12h24Z" fill="#8B3DFF"/><path d="M36 28a4 4 0 0 1 4-4h16a4 4 0 0 1 4 4v16a4 4 0 0 1-4 4H40a4 4 0 0 1-4-4V28Z" fill="#8B3DFF"/><path fill-rule="evenodd" clip-rule="evenodd" d="M32 72a.75.75 0 0 1 .75-.75h30.5a.75.75 0 0 1 0 1.5h-30.5A.75.75 0 0 1 32 72Z" fill="#8B3DFF"/></svg>