<svg width="96" height="96" viewBox="0 0 96 96" fill="none" xmlns="http://www.w3.org/2000/svg"><path fill-rule="evenodd" clip-rule="evenodd" d="M74.262 16.75a.75.75 0 0 1 .75-.75h4.242a.75.75 0 0 1 .75.75v4.243a.75.75 0 1 1-1.5 0V18.56l-4.376 4.376a.75.75 0 0 1-1.06-1.06l4.376-4.377h-2.432a.75.75 0 0 1-.75-.75ZM16.75 21.743a.75.75 0 0 1-.75-.75V16.75a.75.75 0 0 1 .75-.75h4.243a.75.75 0 1 1 0 1.5H18.56l4.376 4.377a.75.75 0 0 1-1.06 1.06L17.5 18.561v2.432a.75.75 0 0 1-.75.75ZM21.743 79.247a.75.75 0 0 1-.75.75H16.75a.75.75 0 0 1-.75-.75v-4.243a.75.75 0 0 1 1.5 0v2.432l4.377-4.376a.75.75 0 0 1 1.06 1.06l-4.376 4.377h2.432a.75.75 0 0 1 .75.75ZM79.254 74.254a.75.75 0 0 1 .75.75v4.243a.75.75 0 0 1-.75.75h-4.242a.75.75 0 1 1 0-1.5h2.432l-4.377-4.377a.75.75 0 1 1 1.061-1.06l4.376 4.376v-2.432a.75.75 0 0 1 .75-.75ZM36 32a4 4 0 0 0-4 4v24a4 4 0 0 0 4 4h24a4 4 0 0 0 4-4V36a4 4 0 0 0-4-4H36Zm3 4a3 3 0 0 0-3 3v18a3 3 0 0 0 3 3h18a3 3 0 0 0 3-3V39a3 3 0 0 0-3-3H39Z" fill="#8B3DFF"/><path opacity=".7" fill-rule="evenodd" clip-rule="evenodd" d="M39 36a3 3 0 0 0-3 3v18a3 3 0 0 0 3 3h18a3 3 0 0 0 3-3V39a3 3 0 0 0-3-3H39Zm3 4a2 2 0 0 0-2 2v12a2 2 0 0 0 2 2h12a2 2 0 0 0 2-2V42a2 2 0 0 0-2-2H42Z" fill="#8B3DFF"/><path opacity=".3" d="M44 45a1 1 0 0 1 1-1h6a1 1 0 0 1 1 1v6a1 1 0 0 1-1 1h-6a1 1 0 0 1-1-1v-6Z" fill="#8B3DFF"/><path opacity=".5" fill-rule="evenodd" clip-rule="evenodd" d="M42 40a2 2 0 0 0-2 2v12a2 2 0 0 0 2 2h12a2 2 0 0 0 2-2V42a2 2 0 0 0-2-2H42Zm3 4a1 1 0 0 0-1 1v6a1 1 0 0 0 1 1h6a1 1 0 0 0 1-1v-6a1 1 0 0 0-1-1h-6Z" fill="#8B3DFF"/></svg>