<svg width="96" height="96" viewBox="0 0 96 96" fill="none" xmlns="http://www.w3.org/2000/svg"><path fill-rule="evenodd" clip-rule="evenodd" d="M57 63.75a.75.75 0 0 1-.22.53l-3 3a.75.75 0 1 1-1.06-1.06l1.72-1.72H40.25a.75.75 0 0 1 0-1.5h14.19l-1.72-1.72a.75.75 0 1 1 1.06-1.06l3 3c.141.14.22.331.22.53Z" fill="#8B3DFF"/><g opacity=".3" fill="#8B3DFF"><path d="M32 28a4 4 0 0 0-4 4v16a4 4 0 0 0 4 4h12a4 4 0 0 1-4-4V32a4 4 0 0 1 4-4H32ZM60 28a4 4 0 0 1 4 4v16a4 4 0 0 1-4 4h4a4 4 0 0 0 4-4V32a4 4 0 0 0-4-4h-4Z"/></g><path d="M40 32a4 4 0 0 1 4-4h16a4 4 0 0 1 4 4v16a4 4 0 0 1-4 4H44a4 4 0 0 1-4-4V32Z" fill="#8B3DFF"/></svg>