<svg width="96" height="96" viewBox="0 0 96 96" fill="none" xmlns="http://www.w3.org/2000/svg"><path opacity=".3" d="M40 61.86c-4.782-2.767-8-7.938-8-13.86s3.218-11.093 8-13.86v27.72Z" fill="#8B3DFF"/><path opacity=".5" d="M40 34.14A15.927 15.927 0 0 1 48 32v32c-2.914 0-5.647-.78-8-2.14V34.14Z" fill="#8B3DFF"/><path opacity=".7" d="M56 34.14v27.72A15.927 15.927 0 0 1 48 64V32c2.914 0 5.647.78 8 2.14Z" fill="#8B3DFF"/><path d="M56 61.86c4.782-2.767 8-7.938 8-13.86s-3.218-11.093-8-13.86v27.72Z" fill="#8B3DFF"/></svg>