<svg width="96" height="96" viewBox="0 0 96 96" fill="none" xmlns="http://www.w3.org/2000/svg"><path opacity=".5" fill-rule="evenodd" clip-rule="evenodd" d="M60 41.5H44a2.5 2.5 0 0 0-2.5 2.5v16a2.5 2.5 0 0 0 2.5 2.5h16a2.5 2.5 0 0 0 2.5-2.5V44a2.5 2.5 0 0 0-2.5-2.5ZM44 40a4 4 0 0 0-4 4v16a4 4 0 0 0 4 4h16a4 4 0 0 0 4-4V44a4 4 0 0 0-4-4H44Z" fill="#8B3DFF"/><path d="M32 36a4 4 0 0 1 4-4h16a4 4 0 0 1 4 4v16a4 4 0 0 1-4 4H36a4 4 0 0 1-4-4V36Z" fill="#8B3DFF"/><path fill-rule="evenodd" clip-rule="evenodd" d="M18 48.25a.75.75 0 0 1 .75-.75h3a.75.75 0 0 1 0 1.5h-3a.75.75 0 0 1-.75-.75Zm2.22 7.03a.75.75 0 0 1 0-1.06l2-2a.75.75 0 1 1 1.06 1.06l-2 2a.75.75 0 0 1-1.06 0Zm0-14.06a.75.75 0 0 1 1.06 0l2 2a.75.75 0 1 1-1.06 1.06l-2-2a.75.75 0 0 1 0-1.06ZM77.5 48.25a.75.75 0 0 1-.75.75h-3a.75.75 0 0 1 0-1.5h3a.75.75 0 0 1 .75.75Zm-2.22-7.03a.75.75 0 0 1 0 1.06l-2 2a.75.75 0 1 1-1.06-1.06l2-2a.75.75 0 0 1 1.06 0Zm0 14.06a.75.75 0 0 1-1.06 0l-2-2a.75.75 0 1 1 1.06-1.06l2 2a.75.75 0 0 1 0 1.06Z" fill="#8B3DFF"/></svg>