<svg width="96" height="96" viewBox="0 0 96 96" fill="none" xmlns="http://www.w3.org/2000/svg"><path d="M68 28.25a4 4 0 0 1 4 4v16a4 4 0 0 1-4 4H52a4 4 0 0 1-4-4v-16a4 4 0 0 1 4-4h16Z" fill="#8B3DFF"/><path opacity=".3" d="M28 28.25a4 4 0 0 0-4 4v16a4 4 0 0 0 4 4h8a4 4 0 0 1-4-4v-16a4 4 0 0 1 4-4h-8Z" fill="#8B3DFF"/><path opacity=".5" d="M36 28.25a4 4 0 0 0-4 4v16a4 4 0 0 0 4 4h8a4 4 0 0 1-4-4v-16a4 4 0 0 1 4-4h-8Z" fill="#8B3DFF"/><path opacity=".7" d="M44 28.25a4 4 0 0 0-4 4v16a4 4 0 0 0 4 4h8a4 4 0 0 1-4-4v-16a4 4 0 0 1 4-4h-8Z" fill="#8B3DFF"/><path fill-rule="evenodd" clip-rule="evenodd" d="M56.75 64a.75.75 0 0 1-.22.53l-3 3a.75.75 0 1 1-1.06-1.06l1.72-1.72H40a.75.75 0 0 1 0-1.5h14.19l-1.72-1.72a.75.75 0 1 1 1.06-1.06l3 3c.141.14.22.331.22.53Z" fill="#8B3DFF"/></svg>