<svg width="96" height="96" viewBox="0 0 96 96" fill="none" xmlns="http://www.w3.org/2000/svg"><path opacity=".3" fill-rule="evenodd" clip-rule="evenodd" d="M72.22 42.048a.75.75 0 0 1 1.06 0 8.75 8.75 0 0 1 0 12.375.75.75 0 0 1-1.06-1.061 7.25 7.25 0 0 0 0-10.253.75.75 0 0 1 0-1.06Z" fill="#8B3DFF"/><path opacity=".5" fill-rule="evenodd" clip-rule="evenodd" d="M75.048 39.22a.75.75 0 0 1 1.06 0c4.98 4.979 4.98 13.052 0 18.03a.75.75 0 0 1-1.06-1.06c4.393-4.393 4.393-11.516 0-15.91a.75.75 0 0 1 0-1.06Z" fill="#8B3DFF"/><path opacity=".3" fill-rule="evenodd" clip-rule="evenodd" d="M23.623 54.422a.75.75 0 0 1-1.06 0 8.75 8.75 0 0 1 0-12.374.75.75 0 0 1 1.06 1.06 7.25 7.25 0 0 0 0 10.254.75.75 0 0 1 0 1.06Z" fill="#8B3DFF"/><path opacity=".5" fill-rule="evenodd" clip-rule="evenodd" d="M20.795 57.25a.75.75 0 0 1-1.06 0c-4.98-4.978-4.98-13.051 0-18.03a.75.75 0 1 1 1.06 1.06c-4.393 4.394-4.393 11.517 0 15.91a.75.75 0 0 1 0 1.06Z" fill="#8B3DFF"/><path fill-rule="evenodd" clip-rule="evenodd" d="M36 32a4 4 0 0 0-4 4v24a4 4 0 0 0 4 4h24a4 4 0 0 0 4-4V36a4 4 0 0 0-4-4H36Zm3 4a3 3 0 0 0-3 3v18a3 3 0 0 0 3 3h18a3 3 0 0 0 3-3V39a3 3 0 0 0-3-3H39Z" fill="#8B3DFF"/><path opacity=".7" fill-rule="evenodd" clip-rule="evenodd" d="M39 36a3 3 0 0 0-3 3v18a3 3 0 0 0 3 3h18a3 3 0 0 0 3-3V39a3 3 0 0 0-3-3H39Zm3 4a2 2 0 0 0-2 2v12a2 2 0 0 0 2 2h12a2 2 0 0 0 2-2V42a2 2 0 0 0-2-2H42Z" fill="#8B3DFF"/><path opacity=".3" d="M44 45a1 1 0 0 1 1-1h6a1 1 0 0 1 1 1v6a1 1 0 0 1-1 1h-6a1 1 0 0 1-1-1v-6Z" fill="#8B3DFF"/><path opacity=".5" fill-rule="evenodd" clip-rule="evenodd" d="M42 40a2 2 0 0 0-2 2v12a2 2 0 0 0 2 2h12a2 2 0 0 0 2-2V42a2 2 0 0 0-2-2H42Zm3 4a1 1 0 0 0-1 1v6a1 1 0 0 0 1 1h6a1 1 0 0 0 1-1v-6a1 1 0 0 0-1-1h-6Z" fill="#8B3DFF"/></svg>