<svg width="96" height="96" viewBox="0 0 96 96" fill="none" xmlns="http://www.w3.org/2000/svg"><path fill-rule="evenodd" clip-rule="evenodd" d="M74.262 16.75a.75.75 0 0 1 .75-.75h4.242a.75.75 0 0 1 .75.75v4.243a.75.75 0 1 1-1.5 0V18.56l-4.376 4.376a.75.75 0 0 1-1.06-1.06l4.376-4.377h-2.432a.75.75 0 0 1-.75-.75ZM16.75 21.743a.75.75 0 0 1-.75-.75V16.75a.75.75 0 0 1 .75-.75h4.243a.75.75 0 1 1 0 1.5H18.56l4.376 4.377a.75.75 0 0 1-1.06 1.06L17.5 18.561v2.432a.75.75 0 0 1-.75.75ZM21.743 79.247a.75.75 0 0 1-.75.75H16.75a.75.75 0 0 1-.75-.75v-4.243a.75.75 0 0 1 1.5 0v2.432l4.377-4.376a.75.75 0 0 1 1.06 1.06l-4.376 4.377h2.432a.75.75 0 0 1 .75.75ZM79.254 74.254a.75.75 0 0 1 .75.75v4.243a.75.75 0 0 1-.75.75h-4.242a.75.75 0 1 1 0-1.5h2.432l-4.377-4.377a.75.75 0 1 1 1.061-1.06l4.376 4.376v-2.432a.75.75 0 0 1 .75-.75ZM48 64c8.837 0 16-7.163 16-16s-7.163-16-16-16-16 7.163-16 16 7.163 16 16 16Zm0-4c6.627 0 12-5.373 12-12s-5.373-12-12-12-12 5.373-12 12 5.373 12 12 12Z" fill="#8B3DFF"/><path opacity=".7" fill-rule="evenodd" clip-rule="evenodd" d="M48 60c6.627 0 12-5.373 12-12s-5.373-12-12-12-12 5.373-12 12 5.373 12 12 12Zm0-4a8 8 0 1 0 0-16 8 8 0 0 0 0 16Z" fill="#8B3DFF"/><circle opacity=".3" cx="48" cy="48" r="4" fill="#8B3DFF"/><path opacity=".5" fill-rule="evenodd" clip-rule="evenodd" d="M48 56a8 8 0 1 0 0-16 8 8 0 0 0 0 16Zm0-4a4 4 0 1 0 0-8 4 4 0 0 0 0 8Z" fill="#8B3DFF"/></svg>