<svg width="96" height="96" viewBox="0 0 96 96" fill="none" xmlns="http://www.w3.org/2000/svg"><path d="M28.25 28a4 4 0 0 1 4-4h16a4 4 0 0 1 4 4v16a4 4 0 0 1-4 4h-16a4 4 0 0 1-4-4V28Z" fill="#8B3DFF"/><path opacity=".3" d="M28.25 68a4 4 0 0 0 4 4h16a4 4 0 0 0 4-4v-8a4 4 0 0 1-4 4h-16a4 4 0 0 1-4-4v8Z" fill="#8B3DFF"/><path opacity=".5" d="M28.25 60a4 4 0 0 0 4 4h16a4 4 0 0 0 4-4v-8a4 4 0 0 1-4 4h-16a4 4 0 0 1-4-4v8Z" fill="#8B3DFF"/><path opacity=".7" d="M28.25 52a4 4 0 0 0 4 4h16a4 4 0 0 0 4-4v-8a4 4 0 0 1-4 4h-16a4 4 0 0 1-4-4v8Z" fill="#8B3DFF"/><path fill-rule="evenodd" clip-rule="evenodd" d="M64 39.25a.75.75 0 0 1 .53.22l3 3a.75.75 0 1 1-1.06 1.06l-1.72-1.72V56a.75.75 0 0 1-1.5 0V41.81l-1.72 1.72a.75.75 0 1 1-1.06-1.06l3-3a.75.75 0 0 1 .53-.22Z" fill="#8B3DFF"/></svg>