<svg width="96" height="96" viewBox="0 0 96 96" fill="none" xmlns="http://www.w3.org/2000/svg"><circle cx="47.75" cy="47.75" r="15.5" fill="#8B3DFF" stroke="#8B3DFF"/><path fill-rule="evenodd" clip-rule="evenodd" d="M22.75 40.5a.75.75 0 0 1-.75-.75c0-8.985 7.075-16.318 15.958-16.732L36.22 21.28a.75.75 0 1 1 1.06-1.06l3 3a.75.75 0 0 1 0 1.06l-3 3a.75.75 0 1 1-1.06-1.06l1.697-1.698C29.882 24.955 23.5 31.607 23.5 39.75a.75.75 0 0 1-.75.75ZM72.75 55a.75.75 0 0 1 .75.75c0 8.985-7.075 16.318-15.958 16.732l1.738 1.738a.75.75 0 1 1-1.06 1.06l-3-3a.75.75 0 0 1 0-1.06l3-3a.75.75 0 1 1 1.06 1.06l-1.697 1.698C65.618 70.545 72 63.893 72 55.75a.75.75 0 0 1 .75-.75Z" fill="#8B3DFF"/></svg>