<svg width="96" height="96" viewBox="0 0 96 96" fill="none" xmlns="http://www.w3.org/2000/svg"><path d="M36 40a4 4 0 0 1 4-4h16a4 4 0 0 1 4 4v16a4 4 0 0 1-4 4H40a4 4 0 0 1-4-4V40Z" fill="#8B3DFF"/><path opacity=".5" d="M35.379 26.338a4 4 0 0 0-4.9 2.829l-4.14 15.455a4 4 0 0 0 2.828 4.899L36 51.35v-11.15a4 4 0 0 1 4-4h13.441l.22-.822a4 4 0 0 0-2.828-4.9L35.38 26.34Z" fill="#8B3DFF"/><path opacity=".3" d="m44.702 60.201 1.777 6.632a4 4 0 0 0 4.9 2.829l15.454-4.141a4 4 0 0 0 2.829-4.9L65.52 45.168a4 4 0 0 0-4.899-2.828l-.621.166v13.696a4 4 0 0 1-4 4H44.702Z" fill="#8B3DFF"/></svg>