<svg width="96" height="96" viewBox="0 0 96 96" fill="none" xmlns="http://www.w3.org/2000/svg"><path d="M36 40a4 4 0 0 1 4-4h16a4 4 0 0 1 4 4v16a4 4 0 0 1-4 4H40a4 4 0 0 1-4-4V40Z" fill="#8B3DFF"/><path opacity=".3" fill-rule="evenodd" clip-rule="evenodd" d="M56 29.5H40c-5.799 0-10.5 4.701-10.5 10.5v16c0 5.799 4.701 10.5 10.5 10.5h16c5.799 0 10.5-4.701 10.5-10.5V40c0-5.799-4.701-10.5-10.5-10.5ZM40 28c-6.627 0-12 5.373-12 12v16c0 6.627 5.373 12 12 12h16c6.627 0 12-5.373 12-12V40c0-6.627-5.373-12-12-12H40Z" fill="#8B3DFF"/><path opacity=".5" fill-rule="evenodd" clip-rule="evenodd" d="M56 33.5H40a6.5 6.5 0 0 0-6.5 6.5v16a6.5 6.5 0 0 0 6.5 6.5h16a6.5 6.5 0 0 0 6.5-6.5V40a6.5 6.5 0 0 0-6.5-6.5ZM40 32a8 8 0 0 0-8 8v16a8 8 0 0 0 8 8h16a8 8 0 0 0 8-8V40a8 8 0 0 0-8-8H40Z" fill="#8B3DFF"/><path fill-rule="evenodd" clip-rule="evenodd" d="M78.59 22.407a.75.75 0 0 1-.75.75h-4.242a.75.75 0 0 1-.75-.75v-4.243a.75.75 0 1 1 1.5 0v2.432l4.376-4.376a.75.75 0 1 1 1.06 1.06l-4.376 4.377h2.432a.75.75 0 0 1 .75.75ZM22.407 17.414a.75.75 0 0 1 .75.75v4.243a.75.75 0 0 1-.75.75h-4.243a.75.75 0 0 1 0-1.5h2.432L16.22 17.28a.75.75 0 1 1 1.06-1.06l4.377 4.376v-2.432a.75.75 0 0 1 .75-.75ZM17.414 73.59a.75.75 0 0 1 .75-.75h4.243a.75.75 0 0 1 .75.75v4.243a.75.75 0 0 1-1.5 0V75.4l-4.377 4.376a.75.75 0 1 1-1.06-1.06l4.376-4.377h-2.432a.75.75 0 0 1-.75-.75ZM73.598 78.583a.75.75 0 0 1-.75-.75V73.59a.75.75 0 0 1 .75-.75h4.242a.75.75 0 0 1 0 1.5h-2.432l4.377 4.377a.75.75 0 0 1-1.06 1.06l-4.377-4.376v2.432a.75.75 0 0 1-.75.75Z" fill="#8B3DFF"/></svg>