<svg width="96" height="96" viewBox="0 0 96 96" fill="none" xmlns="http://www.w3.org/2000/svg"><path fill-rule="evenodd" clip-rule="evenodd" d="M74.262 16.75a.75.75 0 0 1 .75-.75h4.242a.75.75 0 0 1 .75.75v4.243a.75.75 0 1 1-1.5 0V18.56l-4.376 4.376a.75.75 0 0 1-1.06-1.06l4.376-4.377h-2.432a.75.75 0 0 1-.75-.75ZM16.75 21.743a.75.75 0 0 1-.75-.75V16.75a.75.75 0 0 1 .75-.75h4.243a.75.75 0 1 1 0 1.5H18.56l4.376 4.377a.75.75 0 0 1-1.06 1.06L17.5 18.561v2.432a.75.75 0 0 1-.75.75ZM21.743 79.247a.75.75 0 0 1-.75.75H16.75a.75.75 0 0 1-.75-.75v-4.243a.75.75 0 0 1 1.5 0v2.432l4.377-4.376a.75.75 0 0 1 1.06 1.06l-4.376 4.377h2.432a.75.75 0 0 1 .75.75ZM79.254 74.254a.75.75 0 0 1 .75.75v4.243a.75.75 0 0 1-.75.75h-4.242a.75.75 0 1 1 0-1.5h2.432l-4.377-4.377a.75.75 0 1 1 1.061-1.06l4.376 4.376v-2.432a.75.75 0 0 1 .75-.75Z" fill="#8B3DFF"/><g filter="url(#_3892085421__a)"><path d="M33 38a6 6 0 0 1 6-6h20a6 6 0 0 1 6 6v20a6 6 0 0 1-6 6H39a6 6 0 0 1-6-6V38Z" fill="#8B3DFF"/></g><defs><filter id="_3892085421__a" x="25" y="24" width="48" height="48" filterUnits="userSpaceOnUse" color-interpolation-filters="sRGB"><feFlood flood-opacity="0" result="BackgroundImageFix"/><feBlend in="SourceGraphic" in2="BackgroundImageFix" result="shape"/><feGaussianBlur stdDeviation="4" result="effect1_foregroundBlur_1526_9751"/></filter></defs></svg>