<svg width="96" height="96" viewBox="0 0 96 96" fill="none" xmlns="http://www.w3.org/2000/svg"><path d="M43.343 50.34a4 4 0 0 1 4-4h16a4 4 0 0 1 4 4v16a4 4 0 0 1-4 4h-16a4 4 0 0 1-4-4v-16Z" fill="#8B3DFF"/><path opacity=".7" d="M39.207 45.516a4 4 0 0 0-2.828 4.9l4.14 15.454a4.002 4.002 0 0 0 3.696 2.962 3.983 3.983 0 0 1-.872-2.492v-16a4 4 0 0 1 4-4h12.79l-.572-2.137a4 4 0 0 0-4.9-2.828l-15.454 4.141Z" fill="#8B3DFF"/><path opacity=".5" d="M50.127 40.803a4 4 0 0 0-5.464-1.464l-13.857 8a4 4 0 0 0-1.464 5.464l8 13.857a4 4 0 0 0 5.078 1.66 3.988 3.988 0 0 1-1.9-2.45l-4.142-15.455a4 4 0 0 1 2.829-4.899l11.813-3.165-.893-1.548Z" fill="#8B3DFF"/><path opacity=".3" d="M41.142 39.168a4 4 0 0 0-5.657 0L24.172 50.48a4 4 0 0 0 0 5.657l11.313 11.314a4 4 0 0 0 4.021.99 3.985 3.985 0 0 1-2.163-1.782l-8-13.857a4 4 0 0 1 1.464-5.464l11.733-6.774-1.398-1.397Z" fill="#8B3DFF"/><path fill-rule="evenodd" clip-rule="evenodd" d="M50.296 27.494a.75.75 0 0 1 .53-.92c8.68-2.325 17.593 2.611 20.292 11.084l1.229-2.128a.75.75 0 0 1 1.3.75l-2.122 3.674a.75.75 0 0 1-1.025.274l-3.674-2.12a.75.75 0 0 1 .75-1.3l2.079 1.2c-2.498-7.649-10.575-12.092-18.44-9.984a.75.75 0 0 1-.919-.53Z" fill="#8B3DFF"/></svg>