<svg width="96" height="96" viewBox="0 0 96 96" fill="none" xmlns="http://www.w3.org/2000/svg"><circle cx="48" cy="48.001" r="16" fill="#8B3DFF"/><path d="m71.334 35.98.188-.91a1.924 1.924 0 0 0-2.108-2.298v0a1.924 1.924 0 0 1-2.135-2.135l.016-.131a2 2 0 0 0-2.22-2.22l-.336.04a1.76 1.76 0 0 1-1.954-1.954v0a1.76 1.76 0 0 0-2.358-1.856l-.406.15M24.666 60.021l-.188.91a1.924 1.924 0 0 0 2.108 2.298v0c1.234-.144 2.28.9 2.135 2.135l-.015.131a2 2 0 0 0 2.219 2.22l.336-.04a1.76 1.76 0 0 1 1.954 1.954v0a1.76 1.76 0 0 0 2.358 1.856l.406-.15" stroke="#8B3DFF" stroke-width="1.5" stroke-linecap="round"/></svg>