<svg width="96" height="96" viewBox="0 0 96 96" fill="none" xmlns="http://www.w3.org/2000/svg"><path d="M40.23 56h-2.485l-1.444-3.754h-7.869L26.987 56h-2.484l6.337-16h3.053l6.337 16Zm-7.902-13.888-3.13 8.142h6.347l-3.13-8.142h-.087ZM57.197 56a8.28 8.28 0 0 1 .937-2.907c.694-1.247 1.638-2.21 2.835-2.889 1.204-.686 2.542-1.029 4.016-1.029 1.744 0 3.152.34 4.225 1.018 1.08.672 1.842 1.576 2.287 2.714l-1.839 1.347c-.38-.97-.956-1.7-1.729-2.19-.766-.495-1.747-.743-2.944-.743-1.05 0-1.992.244-2.823.733-.825.489-1.47 1.193-1.937 2.112a6.328 6.328 0 0 0-.59 1.834h-2.438Z" fill="#8B3DFF"/><path fill-rule="evenodd" clip-rule="evenodd" d="M42.254 56h2.32v-2.794h5.232c1.014 0 1.773.234 2.276.7.503.467.755 1.153.755 2.058V56h2.396c-.01-1.045-.287-1.918-.831-2.619-.547-.715-1.383-1.215-2.506-1.5v-.098c1.547-.627 2.32-1.725 2.32-3.294 0-.773-.172-1.44-.514-2.002-.343-.57-.858-1.007-1.544-1.314-.678-.313-1.51-.47-2.495-.47h-7.409V56Zm8.942-5.29c-.468.41-1.131.614-1.992.614h-4.63v-4.739h4.63c.912 0 1.59.193 2.035.58.445.387.668.981.668 1.784 0 .759-.237 1.346-.711 1.762Z" fill="#8B3DFF"/></svg>