<svg width="96" height="96" viewBox="0 0 96 96" fill="none" xmlns="http://www.w3.org/2000/svg"><path opacity=".3" d="M23.797 58.3V37.7h40.215v20.6H23.797Z" fill="#8B3DFF"/><path fill="#8B3DFF" d="M64.012 37.7h2.002v20.6h-2.002zM64.011 53.735v2.151a7.57 7.57 0 0 1-2.428-.865c-1.165-.668-2.085-1.609-2.76-2.823-.667-1.215-1.001-2.614-1.001-4.197 0-1.584.334-2.983 1.001-4.198.675-1.214 1.595-2.152 2.76-2.812a7.52 7.52 0 0 1 2.428-.875v2.147a5.04 5.04 0 0 0-1.267.528c-.803.476-1.431 1.162-1.886 2.056-.454.895-.682 1.946-.682 3.154 0 1.221.227 2.28.682 3.174.462.888 1.097 1.57 1.907 2.046.39.225.805.397 1.246.514Z"/><path fill-rule="evenodd" clip-rule="evenodd" d="M41.394 55.788h-2.418l-1.406-3.654h-7.66l-1.406 3.654h-2.418l6.168-15.575h2.972l6.168 15.575ZM33.703 42.27l-3.047 7.926h6.179l-3.047-7.926h-.085ZM43.365 55.788V40.213h7.213c.958 0 1.768.153 2.429.458.667.299 1.168.725 1.502 1.279.333.547.5 1.197.5 1.95 0 1.526-.752 2.595-2.258 3.206v.096c1.094.277 1.907.763 2.44 1.46.54.695.81 1.565.81 2.61 0 1.47-.445 2.592-1.333 3.366-.887.767-2.25 1.15-4.09 1.15h-7.213Zm6.765-9.13c.838 0 1.484-.198 1.94-.596.46-.405.691-.977.691-1.715 0-.782-.216-1.36-.65-1.737-.432-.376-1.093-.564-1.98-.564h-4.507v4.612h4.506Zm.586 7.213c.987 0 1.726-.228 2.216-.682.49-.462.735-1.133.735-2.014 0-.88-.245-1.548-.735-2.002-.49-.455-1.229-.682-2.216-.682h-5.092v5.38h5.092Z" fill="#8B3DFF"/><g opacity=".3" fill="#8B3DFF"><path d="M66.015 56c1.65-.076 2.975-.52 3.972-1.33 1.101-.895 1.84-2.081 2.216-3.559l-1.886-1.14c-.284 1.307-.82 2.294-1.608 2.962-.684.578-1.582.903-2.694.975V56ZM66.015 42.095c.93.063 1.712.298 2.342.707.753.476 1.314 1.186 1.683 2.13l1.79-1.31c-.433-1.108-1.175-1.988-2.226-2.642-.935-.591-2.131-.918-3.59-.98v2.095Z"/></g></svg>