<svg width="96" height="96" viewBox="0 0 96 96" fill="none" xmlns="http://www.w3.org/2000/svg"><path d="M40.26 66.463h-2.414l-1.404-3.649h-7.65l-1.404 3.65h-2.415l6.16-15.554h2.968l6.16 15.553Zm-7.68-13.5-3.043 7.915h6.17l-3.042-7.915h-.085ZM42.23 62.463V46.91h7.201c.958 0 1.766.153 2.426.458.667.297 1.167.723 1.5 1.276.333.546.5 1.195.5 1.947 0 1.525-.752 2.592-2.255 3.202v.096c1.092.276 1.904.762 2.436 1.457.539.695.808 1.564.808 2.607 0 1.468-.443 2.588-1.33 3.361-.886.766-2.248 1.15-4.085 1.15H42.23Zm6.755-9.117c.837 0 1.482-.198 1.936-.595.46-.405.691-.976.691-1.713 0-.78-.216-1.358-.649-1.734-.432-.376-1.092-.564-1.978-.564h-4.5v4.606h4.5Zm.585 7.203c.986 0 1.723-.227 2.212-.681.49-.461.735-1.132.735-2.011 0-.88-.245-1.546-.735-2-.489-.454-1.226-.68-2.212-.68h-5.085v5.371h5.085ZM64.324 58.687c-1.432 0-2.734-.33-3.904-.99-1.163-.666-2.081-1.606-2.755-2.819-.667-1.212-1-2.61-1-4.191 0-1.582.333-2.979 1-4.192.674-1.212 1.592-2.149 2.755-2.808 1.17-.667 2.472-1 3.904-1 1.695 0 3.064.33 4.107.99 1.05.652 1.79 1.531 2.223 2.637l-1.787 1.309c-.369-.943-.93-1.652-1.68-2.128-.745-.482-1.7-.723-2.863-.723-1.02 0-1.936.238-2.744.713-.802.475-1.43 1.16-1.883 2.053-.454.893-.681 1.943-.681 3.149 0 1.22.227 2.276.68 3.17.462.886 1.096 1.567 1.905 2.043.809.468 1.727.702 2.755.702 1.34 0 2.401-.33 3.181-.99.787-.666 1.323-1.652 1.607-2.957l1.883 1.138c-.376 1.475-1.114 2.66-2.213 3.553-1.1.894-2.596 1.34-4.49 1.34Z" fill="#8B3DFF"/><path opacity=".5" fill-rule="evenodd" clip-rule="evenodd" d="M56.192 31.037a6.904 6.904 0 0 0-6.904 6.904v4.22a.75.75 0 1 1-1.5 0 7.21 7.21 0 0 0-14.42 0v4a.75.75 0 0 1-1.5 0v-4a8.71 8.71 0 0 1 15.943-4.854 8.405 8.405 0 0 1 16.786.634.75.75 0 0 1-1.5 0 6.904 6.904 0 0 0-6.905-6.904Z" fill="#8B3DFF"/></svg>