<svg width="96" height="96" viewBox="0 0 96 96" fill="none" xmlns="http://www.w3.org/2000/svg"><path fill-rule="evenodd" clip-rule="evenodd" d="M60.138 30.5a.75.75 0 0 1 .75.75v3a.75.75 0 0 1-1.5 0v-3a.75.75 0 0 1 .75-.75Zm-7.03 2.22a.75.75 0 0 1 1.06 0l2 2a.75.75 0 1 1-1.06 1.06l-2-2a.75.75 0 0 1 0-1.06Zm14.06 0a.75.75 0 0 1 0 1.06l-2 2a.75.75 0 1 1-1.06-1.06l2-2a.75.75 0 0 1 1.06 0ZM60.138 65.5a.75.75 0 0 1-.75-.75v-3a.75.75 0 0 1 1.5 0v3a.75.75 0 0 1-.75.75Zm7.03-2.22a.75.75 0 0 1-1.06 0l-2-2a.75.75 0 1 1 1.06-1.06l2 2a.75.75 0 0 1 0 1.06Zm-14.06 0a.75.75 0 0 1 0-1.06l2-2a.75.75 0 1 1 1.06 1.06l-2 2a.75.75 0 0 1-1.06 0Z" fill="#8B3DFF"/><path d="M37.598 52.571h-1.42l-.825-2.145h-4.496l-.826 2.145h-1.42l3.622-9.142h1.745l3.62 9.142Zm-4.515-7.936-1.788 4.653h3.627l-1.789-4.653h-.05ZM39.884 54.286V41.714h5.822c.773 0 1.427.124 1.96.37.539.24.943.585 1.213 1.032.269.441.404.966.404 1.574 0 1.232-.608 2.095-1.823 2.588v.077c.883.224 1.539.616 1.969 1.178.436.562.653 1.264.653 2.107 0 1.187-.358 2.092-1.074 2.717-.717.62-1.818.929-3.302.929h-5.822Zm5.46-7.37c.677 0 1.199-.16 1.566-.48.372-.328.558-.79.558-1.385 0-.63-.174-1.098-.524-1.402-.35-.304-.883-.456-1.6-.456h-3.637v3.724h3.637Zm.473 5.822c.797 0 1.393-.183 1.789-.55.395-.373.593-.915.593-1.626 0-.71-.197-1.25-.593-1.616-.396-.367-.992-.55-1.789-.55h-4.11v4.342h4.11ZM60.027 56c-1.432 0-2.734-.33-3.904-.99-1.163-.666-2.082-1.606-2.755-2.819-.667-1.212-1-2.61-1-4.191 0-1.582.333-2.979 1-4.191.673-1.213 1.592-2.15 2.755-2.809 1.17-.667 2.472-1 3.904-1 1.695 0 3.064.33 4.107.99 1.05.652 1.79 1.531 2.223 2.638l-1.787 1.308c-.369-.943-.93-1.652-1.681-2.127-.745-.483-1.699-.724-2.862-.724-1.021 0-1.936.238-2.744.713-.802.475-1.43 1.16-1.883 2.053-.454.894-.681 1.943-.681 3.149 0 1.22.227 2.277.68 3.17.462.887 1.096 1.568 1.905 2.043.808.468 1.727.702 2.755.702 1.34 0 2.4-.33 3.181-.99.787-.666 1.323-1.652 1.606-2.957l1.883 1.138c-.376 1.476-1.113 2.66-2.212 3.554-1.1.893-2.596 1.34-4.49 1.34Z" fill="#8B3DFF"/></svg>