<svg width="96" height="96" viewBox="0 0 96 96" fill="none" xmlns="http://www.w3.org/2000/svg"><path d="M33.179 45.805h-2.113l-1.229-3.193h-6.692l-1.23 3.193h-2.112l5.39-13.61h2.596l5.39 13.61Zm-6.72-11.813-2.663 6.926h5.399l-2.662-6.926h-.075ZM34.901 45.805v-13.61h6.302c.838 0 1.545.134 2.122.4.584.261 1.021.634 1.313 1.118.292.478.438 1.045.438 1.703 0 1.335-.658 2.269-1.974 2.802v.084c.956.242 1.666.667 2.132 1.275.471.608.707 1.369.707 2.28 0 1.285-.388 2.266-1.163 2.942-.776.67-1.968 1.006-3.575 1.006h-6.302Zm5.911-7.978c.733 0 1.297-.174 1.694-.521.404-.354.605-.853.605-1.499 0-.682-.189-1.188-.567-1.517-.379-.329-.956-.493-1.732-.493h-3.937v4.03h3.937Zm.512 6.302c.863 0 1.508-.198 1.936-.596.429-.403.643-.99.643-1.759 0-.77-.214-1.353-.643-1.75-.428-.397-1.073-.596-1.936-.596h-4.45v4.701h4.45ZM54.235 46c-1.253 0-2.392-.289-3.416-.866a6.313 6.313 0 0 1-2.41-2.466c-.584-1.062-.876-2.284-.876-3.668 0-1.384.292-2.606.875-3.668.59-1.06 1.393-1.88 2.411-2.457 1.024-.583 2.163-.875 3.416-.875 1.483 0 2.681.289 3.593.866.919.57 1.567 1.34 1.946 2.308L58.21 36.32c-.323-.825-.813-1.446-1.47-1.862-.652-.422-1.487-.633-2.505-.633-.893 0-1.694.208-2.401.624-.702.416-1.25 1.015-1.648 1.797-.397.782-.596 1.7-.596 2.755 0 1.067.199 1.992.596 2.774.404.776.959 1.371 1.666 1.787.708.41 1.511.614 2.411.614 1.173 0 2.1-.288 2.784-.865.688-.584 1.157-1.446 1.405-2.588l1.648.996c-.33 1.29-.975 2.327-1.937 3.11-.961.781-2.27 1.172-3.928 1.172Z" fill="#8B3DFF"/><path fill-rule="evenodd" clip-rule="evenodd" d="M74.85 39a.75.75 0 0 1-.22.53l-3 3a.75.75 0 0 1-1.06-1.06l1.719-1.72h-7.44a.75.75 0 0 1 0-1.5h7.44l-1.72-1.72a.75.75 0 0 1 1.06-1.06l3 3c.142.14.22.331.22.53Z" fill="#8B3DFF"/><g opacity=".5" fill="#8B3DFF"><path d="M49.277 63.805h-2.113l-1.23-3.193h-6.692l-1.229 3.193H35.9l5.39-13.61h2.597l5.39 13.61Zm-6.721-11.813-2.662 6.926h5.399l-2.663-6.926h-.074ZM50.999 63.805v-13.61h6.302c.838 0 1.545.134 2.122.4.584.261 1.021.634 1.313 1.118.291.478.437 1.045.437 1.703 0 1.335-.658 2.269-1.973 2.802v.084c.956.242 1.666.667 2.131 1.275.472.608.708 1.369.708 2.28 0 1.285-.388 2.266-1.164 2.942-.775.67-1.967 1.006-3.574 1.006h-6.302Zm5.91-7.978c.733 0 1.298-.174 1.695-.521.403-.354.605-.853.605-1.499 0-.682-.19-1.188-.568-1.517-.378-.329-.955-.493-1.731-.493h-3.938v4.03h3.938Zm.513 6.302c.863 0 1.508-.198 1.936-.596.428-.403.642-.99.642-1.759 0-.77-.214-1.353-.642-1.75-.428-.397-1.073-.596-1.936-.596h-4.45v4.701h4.45ZM70.333 64c-1.254 0-2.392-.289-3.416-.866-1.018-.583-1.822-1.405-2.411-2.466-.584-1.062-.875-2.284-.875-3.668 0-1.384.291-2.606.875-3.668.59-1.06 1.393-1.88 2.41-2.457 1.025-.583 2.163-.875 3.417-.875 1.483 0 2.68.289 3.593.866.918.57 1.567 1.34 1.945 2.308l-1.563 1.145c-.323-.825-.813-1.446-1.471-1.862-.652-.422-1.486-.633-2.504-.633-.894 0-1.694.208-2.402.624-.7.416-1.25 1.015-1.647 1.797s-.596 1.7-.596 2.755c0 1.067.199 1.992.596 2.774.403.776.959 1.371 1.666 1.787.707.41 1.511.614 2.41.614 1.174 0 2.102-.288 2.784-.865.689-.584 1.157-1.446 1.406-2.588l1.647.996c-.329 1.29-.974 2.327-1.936 3.11C73.3 63.608 71.99 64 70.333 64Z"/></g><path opacity=".5" fill-rule="evenodd" clip-rule="evenodd" d="M21.15 57a.75.75 0 0 1 .22-.53l3-3a.75.75 0 0 1 1.06 1.06l-1.719 1.72h7.44a.75.75 0 0 1 0 1.5h-7.44l1.72 1.72a.75.75 0 1 1-1.061 1.06l-3-3a.75.75 0 0 1-.22-.53Z" fill="#8B3DFF"/></svg>