<svg width="96" height="96" viewBox="0 0 96 96" fill="none" xmlns="http://www.w3.org/2000/svg"><path d="M40.26 55.777h-2.414l-1.404-3.65h-7.65l-1.404 3.65h-2.415l6.16-15.553h2.968l6.16 15.553Zm-7.68-13.5-3.043 7.915h6.17l-3.042-7.915h-.085ZM42.23 43.223v-3h2.255v1.086h5.085c.986 0 1.723-.227 2.212-.681a2.09 2.09 0 0 0 .334-.405h2.542c-.208.752-.589 1.37-1.142 1.851-.886.766-2.248 1.15-4.085 1.15H42.23Z" fill="#8B3DFF"/><path fill-rule="evenodd" clip-rule="evenodd" d="M42.23 55.777V45.223h7.201c.958 0 1.766.153 2.426.458.667.298 1.167.723 1.5 1.276.333.547.5 1.196.5 1.947 0 1.525-.752 2.592-2.255 3.202v.096c1.092.277 1.904.763 2.436 1.458.452.583.715 1.289.787 2.117H52.5c-.064-.688-.303-1.223-.717-1.607-.489-.454-1.226-.68-2.212-.68h-5.085v2.287h-2.256Zm6.755-4.117c.837 0 1.482-.199 1.936-.596.46-.404.691-.975.691-1.713 0-.78-.216-1.358-.649-1.734-.432-.376-1.092-.564-1.978-.564h-4.5v4.607h4.5Z" fill="#8B3DFF"/><path d="M56.665 42.149c0-.676.06-1.317.182-1.926h2.394a7.795 7.795 0 0 0-.225 1.926c0 1.22.227 2.276.68 3.17.462.887 1.096 1.567 1.905 2.043.809.468 1.727.702 2.755.702 1.34 0 2.401-.33 3.181-.99.787-.666 1.323-1.652 1.607-2.957l1.883 1.138c-.376 1.475-1.114 2.66-2.213 3.553-1.1.894-2.596 1.34-4.49 1.34-1.432 0-2.734-.329-3.904-.988-1.163-.667-2.081-1.607-2.755-2.82-.667-1.212-1-2.61-1-4.191ZM57.768 55.777a7.109 7.109 0 0 1 2.652-2.628c1.17-.667 2.472-1 3.904-1 1.695 0 3.064.33 4.107.99 1.05.652 1.79 1.531 2.223 2.638h-2.54a3.899 3.899 0 0 0-.928-.82c-.745-.482-1.698-.723-2.862-.723-1.02 0-1.936.238-2.744.713-.385.228-.73.505-1.035.83h-2.777Z" fill="#8B3DFF"/></svg>