<svg width="96" height="96" viewBox="0 0 96 96" fill="none" xmlns="http://www.w3.org/2000/svg"><path d="M40.26 61.492h-2.415l-1.404-3.65h-7.65l-1.404 3.65h-2.415l6.16-15.554H34.1l6.16 15.554ZM32.58 47.99l-3.044 7.915h6.17l-3.042-7.915h-.085Z" fill="#8B3DFF"/><g opacity=".3" fill="#8B3DFF"><path d="M42.228 61.492V45.938h7.203c.957 0 1.766.152 2.425.457.667.298 1.167.724 1.5 1.277.334.546.5 1.195.5 1.947 0 1.525-.751 2.592-2.255 3.202v.096c1.092.276 1.904.762 2.436 1.457.54.695.809 1.564.809 2.607 0 1.468-.443 2.589-1.33 3.362-.887.766-2.248 1.149-4.085 1.149h-7.203Zm6.756-9.118c.837 0 1.482-.198 1.936-.596.461-.404.692-.975.692-1.712 0-.78-.217-1.359-.65-1.735-.432-.375-1.092-.563-1.978-.563h-4.5v4.606h4.5Zm.585 7.203c.986 0 1.723-.227 2.213-.681.49-.461.734-1.131.734-2.01 0-.88-.245-1.547-.734-2.001-.49-.454-1.227-.68-2.213-.68h-5.085v5.372h5.085ZM64.325 61.715c-1.433 0-2.734-.33-3.904-.99-1.163-.666-2.082-1.606-2.756-2.819-.666-1.212-1-2.61-1-4.191 0-1.582.334-2.98 1-4.192.674-1.213 1.593-2.15 2.756-2.809 1.17-.666 2.471-1 3.904-1 1.695 0 3.064.33 4.107.99 1.05.652 1.79 1.532 2.223 2.638l-1.787 1.309c-.369-.944-.93-1.653-1.68-2.128-.746-.482-1.7-.724-2.863-.724-1.021 0-1.936.238-2.745.713-.801.475-1.429 1.16-1.883 2.053-.454.894-.68 1.944-.68 3.15 0 1.22.226 2.276.68 3.17.461.887 1.096 1.568 1.905 2.043.808.468 1.727.702 2.755.702 1.34 0 2.401-.33 3.181-.99.788-.666 1.323-1.652 1.607-2.957l1.883 1.138c-.376 1.475-1.114 2.66-2.213 3.554-1.1.893-2.596 1.34-4.49 1.34Z"/></g><path d="M42.228 55.777V40.223h7.203c.957 0 1.766.153 2.425.458.667.297 1.167.723 1.5 1.276.334.546.5 1.195.5 1.947 0 1.525-.751 2.592-2.255 3.202v.096c1.092.277 1.904.763 2.436 1.458.54.695.809 1.564.809 2.606 0 1.468-.443 2.589-1.33 3.362-.887.766-2.248 1.149-4.085 1.149h-7.203Zm6.756-9.117c.837 0 1.482-.2 1.936-.596.461-.404.692-.975.692-1.713 0-.78-.217-1.358-.65-1.734-.432-.376-1.092-.564-1.978-.564h-4.5v4.607h4.5Zm.585 7.202c.986 0 1.723-.227 2.213-.68.49-.462.734-1.132.734-2.012 0-.88-.245-1.546-.734-2-.49-.454-1.227-.68-2.213-.68h-5.085v5.372h5.085ZM64.324 50.286c-1.433 0-2.734-.33-3.905-.99-1.163-.666-2.081-1.606-2.755-2.819-.667-1.213-1-2.61-1-4.192 0-1.581.333-2.978 1-4.191.673-1.213 1.592-2.15 2.755-2.809 1.17-.667 2.472-1 3.905-1 1.695 0 3.064.33 4.106.99 1.05.652 1.791 1.531 2.224 2.638l-1.787 1.309c-.37-.944-.93-1.653-1.681-2.128-.745-.483-1.7-.724-2.862-.724-1.022 0-1.937.238-2.745.713-.802.475-1.43 1.16-1.883 2.053-.454.894-.681 1.944-.681 3.15 0 1.22.227 2.276.68 3.17.462.886 1.097 1.567 1.905 2.042.809.469 1.727.703 2.756.703 1.34 0 2.4-.33 3.18-.99.788-.666 1.323-1.652 1.607-2.957l1.883 1.138c-.376 1.475-1.113 2.66-2.213 3.553-1.1.894-2.596 1.34-4.49 1.34Z" fill="#8B3DFF"/></svg>