<svg width="96" height="96" viewBox="0 0 96 96" fill="none" xmlns="http://www.w3.org/2000/svg"><path opacity=".3" d="m69.457 55.78-29.631-.006-6.158-15.548 35.79.006a2 2 0 0 1 2 2v11.549a2 2 0 0 1-2.001 2Z" fill="#8B3DFF"/><path d="M39.825 55.774h-2.414l-1.404-3.648h-7.646l-1.404 3.648h-2.414L30.7 40.226h2.967l6.157 15.548Zm-7.678-13.496-3.042 7.913h6.169l-3.042-7.913h-.085ZM42.962 56.565l-4.025-15.019 6.955-1.863c.924-.248 1.745-.31 2.46-.186.721.115 1.314.397 1.78.845.462.44.791 1.024.986 1.75.394 1.473-.056 2.698-1.35 3.676l.025.092c1.127-.015 2.036.244 2.73.777.7.532 1.185 1.301 1.455 2.308.38 1.417.242 2.614-.414 3.59-.658.97-1.874 1.691-3.648 2.167l-6.954 1.863Zm4.164-10.552c.808-.216 1.38-.575 1.715-1.076.34-.51.416-1.12.225-1.833-.202-.753-.56-1.255-1.076-1.506-.515-.251-1.2-.262-2.056-.033l-4.345 1.165 1.191 4.448 4.346-1.165Zm2.428 6.804c.952-.255 1.606-.665 1.96-1.23.354-.572.417-1.283.19-2.132-.228-.849-.637-1.43-1.227-1.741-.59-.312-1.36-.34-2.313-.085l-4.91 1.316 1.39 5.187 4.91-1.315ZM67.816 54.979c-1.24.716-2.532 1.08-3.875 1.095-1.34.004-2.605-.35-3.795-1.064-1.183-.716-2.17-1.76-2.96-3.129-.791-1.369-1.201-2.745-1.23-4.129-.023-1.386.304-2.656.982-3.808.68-1.162 1.64-2.101 2.88-2.818 1.467-.847 2.817-1.245 4.05-1.196 1.235.04 2.316.432 3.243 1.173l-.893 2.026c-.79-.632-1.63-.966-2.519-1.002-.885-.045-1.832.223-2.839.805-.884.51-1.557 1.173-2.02 1.989-.456.812-.657 1.718-.604 2.718.054 1.001.382 2.023.985 3.067.61 1.056 1.334 1.858 2.174 2.404.842.538 1.732.81 2.67.817.934.001 1.846-.255 2.736-.77 1.16-.67 1.913-1.485 2.26-2.446.348-.97.318-2.092-.088-3.363l2.199.044c.412 1.465.365 2.86-.14 4.182-.505 1.323-1.577 2.458-3.216 3.405Z" fill="#8B3DFF"/></svg>