<svg width="96" height="96" viewBox="0 0 96 96" fill="none" xmlns="http://www.w3.org/2000/svg"><path d="M34.26 55.777h-2.414l-1.404-3.65h-7.65l-1.404 3.65h-2.415l6.16-15.554h2.968l6.16 15.554Zm-7.68-13.5-3.043 7.914h6.17l-3.042-7.914h-.085ZM42.23 55.777V40.223h7.201c.958 0 1.766.153 2.426.458.667.298 1.167.723 1.5 1.276.333.547.5 1.196.5 1.947 0 1.525-.752 2.592-2.255 3.202v.096c1.092.277 1.904.763 2.436 1.458.539.695.808 1.563.808 2.606 0 1.468-.443 2.589-1.33 3.362-.886.766-2.248 1.149-4.085 1.149H42.23Zm6.755-9.117c.837 0 1.482-.199 1.936-.596.46-.404.691-.975.691-1.713 0-.78-.216-1.358-.649-1.734-.432-.376-1.092-.564-1.978-.564h-4.5v4.607h4.5Zm.585 7.202c.986 0 1.723-.227 2.212-.681.49-.461.735-1.131.735-2.01 0-.88-.245-1.547-.735-2-.489-.455-1.226-.682-2.212-.682h-5.085v5.373h5.085ZM70.324 56c-1.432 0-2.734-.33-3.904-.99-1.163-.666-2.081-1.606-2.755-2.819-.667-1.212-1-2.61-1-4.191 0-1.582.333-2.979 1-4.191.674-1.213 1.592-2.15 2.755-2.809 1.17-.667 2.472-1 3.904-1 1.695 0 3.064.33 4.107.99 1.05.652 1.79 1.531 2.223 2.638l-1.787 1.308c-.369-.943-.93-1.652-1.68-2.127-.745-.483-1.7-.724-2.863-.724-1.02 0-1.936.238-2.744.713-.802.475-1.43 1.16-1.883 2.053-.454.894-.681 1.943-.681 3.149 0 1.22.227 2.277.68 3.17.462.887 1.097 1.568 1.905 2.043.808.468 1.727.702 2.755.702 1.34 0 2.401-.33 3.181-.99.787-.666 1.323-1.652 1.607-2.957l1.883 1.138c-.376 1.476-1.114 2.66-2.213 3.554-1.1.893-2.596 1.34-4.49 1.34Z" fill="#8B3DFF"/></svg>