<svg width="96" height="96" viewBox="0 0 96 96" fill="none" xmlns="http://www.w3.org/2000/svg"><path d="M40.26 55.777h-2.415l-1.404-3.65h-7.649l-1.404 3.65h-2.415l6.16-15.554H34.1l6.16 15.554Zm-7.68-13.5-3.043 7.914h6.17l-3.043-7.914h-.085ZM42.228 55.777V40.223h7.203c.957 0 1.766.153 2.425.458.667.298 1.167.723 1.5 1.276.334.547.5 1.196.5 1.947 0 1.525-.752 2.592-2.255 3.202v.096c1.092.277 1.904.763 2.436 1.458.54.695.809 1.563.809 2.606 0 1.468-.444 2.589-1.33 3.362-.887.766-2.248 1.149-4.085 1.149h-7.203Zm6.756-9.117c.837 0 1.482-.199 1.936-.596.461-.404.691-.975.691-1.713 0-.78-.216-1.358-.648-1.734-.433-.376-1.093-.564-1.98-.564h-4.5v4.607h4.5Zm.585 7.202c.986 0 1.723-.227 2.213-.681.49-.461.734-1.131.734-2.01 0-.88-.245-1.547-.734-2-.49-.455-1.227-.682-2.213-.682h-5.085v5.373h5.085Z" fill="#8B3DFF"/><path opacity=".3" d="M64.325 56c-1.433 0-2.734-.33-3.904-.99-1.163-.666-2.082-1.606-2.756-2.819-.666-1.212-1-2.61-1-4.191 0-1.582.334-2.979 1-4.191.674-1.213 1.593-2.15 2.756-2.809 1.17-.667 2.471-1 3.904-1 1.695 0 3.064.33 4.106.99 1.05.652 1.791 1.531 2.224 2.638l-1.787 1.308c-.37-.943-.93-1.652-1.681-2.127-.745-.483-1.699-.724-2.862-.724-1.021 0-1.936.238-2.745.713-.801.475-1.429 1.16-1.883 2.053-.454.894-.68 1.943-.68 3.149 0 1.22.226 2.277.68 3.17.461.887 1.096 1.568 1.904 2.043.809.468 1.727.702 2.756.702 1.34 0 2.4-.33 3.18-.99.788-.666 1.323-1.652 1.607-2.957l1.883 1.138c-.376 1.476-1.113 2.66-2.213 3.554-1.099.893-2.595 1.34-4.49 1.34Z" fill="#8B3DFF"/><path fill-rule="evenodd" clip-rule="evenodd" d="M56.665 36a.75.75 0 0 1 .75.75v22.5a.75.75 0 1 1-1.5 0v-22.5a.75.75 0 0 1 .75-.75Z" fill="#8B3DFF"/></svg>