<svg width="96" height="96" viewBox="0 0 96 96" fill="none" xmlns="http://www.w3.org/2000/svg"><path d="m39.292 65.916-3.453-8.72h-2.597l-3.454 8.72h2.058l2.662-6.924h.074l2.662 6.924h2.048Z" fill="#8B3DFF"/><path fill-rule="evenodd" clip-rule="evenodd" d="M53.895 65.916a3.282 3.282 0 0 0-.612-1.339c-.465-.608-1.176-1.033-2.132-1.275v-.084c1.316-.534 1.974-1.468 1.974-2.802 0-.657-.146-1.225-.438-1.703-.291-.484-.729-.857-1.312-1.117-.577-.267-1.285-.4-2.123-.4h-6.301v8.72h1.973v-1.488h4.45c.862 0 1.508.199 1.936.596.251.233.429.53.532.892h2.053Zm-5.033-3.089c.732 0 1.297-.174 1.694-.521.403-.354.605-.853.605-1.499 0-.682-.19-1.188-.568-1.517-.379-.329-.956-.493-1.731-.493h-3.938v4.03h3.938Z" fill="#8B3DFF"/><path d="M55.792 65.916a8.43 8.43 0 0 1-.21-1.916c0-1.384.292-2.606.876-3.668.59-1.06 1.393-1.88 2.41-2.457 1.024-.583 2.163-.875 3.417-.875 1.483 0 2.68.289 3.593.866.918.57 1.567 1.34 1.945 2.308L66.26 61.32c-.322-.825-.813-1.446-1.47-1.862-.652-.422-1.487-.633-2.504-.633-.894 0-1.694.208-2.402.624-.701.416-1.25 1.015-1.648 1.797-.397.782-.595 1.7-.595 2.755 0 .7.085 1.339.256 1.916h-2.104ZM66.822 65.916h-.365a7.46 7.46 0 0 0 .044-.194l.321.194Z" fill="#8B3DFF"/><g opacity=".3" fill="#8B3DFF"><path d="M58.868 70.134c1.024.577 2.163.866 3.416.866 1.657 0 2.967-.391 3.928-1.173.962-.782 1.608-1.818 1.936-3.109l-1.326-.802h-.366c-.258 1.046-.711 1.844-1.36 2.394-.683.577-1.611.865-2.784.865-.9 0-1.703-.204-2.41-.614-.708-.416-1.264-1.011-1.667-1.787a5.053 5.053 0 0 1-.34-.858h-2.103c.145.626.367 1.21.665 1.752.59 1.06 1.393 1.883 2.41 2.466ZM42.95 65.916v4.889h6.302c1.607 0 2.799-.336 3.575-1.006.775-.676 1.163-1.657 1.163-2.941 0-.335-.032-.648-.095-.942h-2.053c.073.254.11.54.11.858 0 .77-.215 1.356-.643 1.76-.428.396-1.073.595-1.936.595h-4.45v-3.213H42.95ZM29.788 65.916l-1.936 4.889h2.113l1.228-3.193h6.693l1.229 3.193h2.113l-1.936-4.889h-2.049v.002h-5.398v-.002h-2.057Z"/></g><path fill-rule="evenodd" clip-rule="evenodd" d="M26 65.166a.75.75 0 0 1 .75-.75h43.5a.75.75 0 0 1 0 1.5h-43.5a.75.75 0 0 1-.75-.75Z" fill="#8B3DFF"/><path opacity=".3" d="M36 41h24v4a4 4 0 0 1-4 4H40a4 4 0 0 1-4-4v-4Z" fill="#8B3DFF"/><g clip-path="url(#_354711363__a)" fill="#8B3DFF"><path opacity=".6" d="M40 49h16a4 4 0 0 0 4-4v-4l-6.586-6.586a2 2 0 0 0-2.828 0L37.172 47.83A3.987 3.987 0 0 0 40 49Z"/><path fill-rule="evenodd" clip-rule="evenodd" d="M36 29a4 4 0 0 1 4-4h16a4 4 0 0 1 4 4v12l-6.586-6.586a2 2 0 0 0-2.828 0L37.172 47.828A3.987 3.987 0 0 1 36 45V29Zm6.5 5a2.5 2.5 0 1 0 0-5 2.5 2.5 0 0 0 0 5Z"/><circle opacity=".6" cx="42.5" cy="31.5" r="2.5"/></g><path fill-rule="evenodd" clip-rule="evenodd" d="M33 41a.75.75 0 0 1 .75-.75h28.5a.75.75 0 0 1 0 1.5h-28.5A.75.75 0 0 1 33 41Z" fill="#8B3DFF"/><defs><clipPath id="_354711363__a"><path fill="#fff" transform="translate(36 25)" d="M0 0h24v16H0z"/></clipPath></defs></svg>