<svg width="96" height="96" viewBox="0 0 96 96" fill="none" xmlns="http://www.w3.org/2000/svg"><path opacity=".6" d="M40.445 47h16a4 4 0 0 0 4-4v-4l-6.586-6.586a2 2 0 0 0-2.829 0L37.616 45.83A3.987 3.987 0 0 0 40.445 47Z" fill="#8B3DFF"/><path fill-rule="evenodd" clip-rule="evenodd" d="M36.444 27a4 4 0 0 1 4-4h16a4 4 0 0 1 4 4v12l-6.586-6.586a2 2 0 0 0-2.828 0L37.616 45.828A3.988 3.988 0 0 1 36.444 43V27Zm6.5 5a2.5 2.5 0 1 0 0-5 2.5 2.5 0 0 0 0 5Z" fill="#8B3DFF"/><circle opacity=".6" cx="42.944" cy="29.5" r="2.5" fill="#8B3DFF"/><path opacity=".3" d="M26.852 73V55h35.14v18h-35.14Z" fill="#8B3DFF"/><path fill="#8B3DFF" d="M61.991 55h1.75v18h-1.75zM61.99 69.01v1.88a6.614 6.614 0 0 1-2.122-.755c-1.018-.584-1.821-1.406-2.411-2.467-.583-1.061-.875-2.284-.875-3.668 0-1.383.292-2.606.875-3.667.59-1.061 1.393-1.88 2.41-2.458a6.568 6.568 0 0 1 2.123-.764v1.876c-.391.104-.76.258-1.107.462-.702.415-1.25 1.014-1.648 1.796-.397.782-.596 1.7-.596 2.755 0 1.068.199 1.992.596 2.774.403.776.959 1.372 1.666 1.788.34.197.704.347 1.09.449Z"/><path fill-rule="evenodd" clip-rule="evenodd" d="M42.228 70.805h-2.113l-1.229-3.193h-6.693l-1.228 3.193h-2.113l5.39-13.609h2.596l5.39 13.609Zm-6.72-11.813-2.663 6.926h5.399l-2.662-6.926h-.075ZM43.95 70.805V57.196h6.302c.838 0 1.545.133 2.122.4.584.26 1.021.633 1.313 1.117.292.478.437 1.046.437 1.704 0 1.334-.657 2.268-1.973 2.802v.083c.956.242 1.666.667 2.132 1.276.471.608.707 1.368.707 2.28 0 1.285-.388 2.265-1.163 2.942-.776.67-1.968 1.005-3.575 1.005H43.95Zm5.911-7.977c.732 0 1.297-.174 1.694-.522.404-.353.605-.853.605-1.498 0-.683-.189-1.189-.567-1.518-.38-.328-.956-.493-1.732-.493h-3.937v4.03h3.937Zm.512 6.301c.863 0 1.508-.198 1.936-.595.428-.404.643-.99.643-1.76s-.215-1.352-.643-1.75c-.428-.397-1.073-.595-1.936-.595h-4.45v4.7h4.45Z" fill="#8B3DFF"/><g opacity=".3" fill="#8B3DFF"><path d="M63.741 70.99c1.443-.066 2.6-.454 3.471-1.162.962-.782 1.608-1.819 1.936-3.11l-1.647-.995c-.248 1.141-.717 2.004-1.406 2.587-.597.505-1.382.79-2.354.852v1.828ZM63.741 58.84c.814.055 1.496.26 2.047.618.658.416 1.148 1.036 1.47 1.862l1.565-1.145c-.379-.968-1.027-1.738-1.946-2.309-.816-.516-1.862-.802-3.136-.856v1.83Z"/></g></svg>