<svg width="96" height="96" viewBox="0 0 96 96" fill="none" xmlns="http://www.w3.org/2000/svg"><path fill-rule="evenodd" clip-rule="evenodd" d="M74.26 16.752a.75.75 0 0 1 .75-.75h4.242a.75.75 0 0 1 .75.75v4.242a.75.75 0 0 1-1.5 0v-2.432l-4.376 4.377a.75.75 0 1 1-1.06-1.06l4.376-4.377H75.01a.75.75 0 0 1-.75-.75ZM16.748 21.744a.75.75 0 0 1-.75-.75v-4.242a.75.75 0 0 1 .75-.75h4.242a.75.75 0 0 1 0 1.5h-2.432l4.377 4.376a.75.75 0 0 1-1.06 1.06l-4.377-4.376v2.432a.75.75 0 0 1-.75.75ZM21.74 79.249a.75.75 0 0 1-.75.75h-4.242a.75.75 0 0 1-.75-.75v-4.243a.75.75 0 0 1 1.5 0v2.432l4.376-4.377a.75.75 0 0 1 1.06 1.061l-4.376 4.377h2.432a.75.75 0 0 1 .75.75ZM79.252 74.256a.75.75 0 0 1 .75.75v4.243a.75.75 0 0 1-.75.75H75.01a.75.75 0 0 1 0-1.5h2.432l-4.377-4.377a.75.75 0 0 1 1.06-1.06l4.377 4.376v-2.432a.75.75 0 0 1 .75-.75Z" fill="#8B3DFF"/><path opacity=".4" d="M37.843 51.862a3.982 3.982 0 0 0 2.074.58h16a4 4 0 0 0 4-4v-2h-18L37.09 51.27a4.013 4.013 0 0 0 .754.592Z" fill="#8B3DFF"/><path opacity=".2" d="M35.917 46.441v2c0 1.105.447 2.105 1.171 2.829l4.829-4.829h-6Z" fill="#8B3DFF"/><path opacity=".6" d="m47.917 40.441-6 6h18v-2l-4-4h-8Z" fill="#8B3DFF"/><g opacity=".4" fill="#8B3DFF"><path d="M35.917 40.441v6h6l6-6h-12ZM55.917 40.441l4 4v-4h-4Z"/></g><path opacity=".8" d="M55.916 40.441h-8l2.586-2.585a2 2 0 0 1 2.829 0l2.585 2.585Z" fill="#8B3DFF"/><path opacity=".6" d="M35.917 34.441v6h12l2.585-2.586a2 2 0 0 1 2.829 0l2.586 2.586h4v-6h-15.05a2.5 2.5 0 1 1-4.9 0h-4.05Z" fill="#8B3DFF"/><path opacity=".4" d="M42.417 37.441a2.5 2.5 0 0 0 2.45-3h-4.9a2.5 2.5 0 0 0 2.45 3Z" fill="#8B3DFF"/><path d="M39.917 28.441a4 4 0 0 0-4 4v2h4.05a2.5 2.5 0 0 1 4.9 0h15.05v-2a4 4 0 0 0-4-4h-16Z" fill="#8B3DFF"/><path opacity=".6" d="M44.867 34.441h-4.9a2.5 2.5 0 0 1 4.9 0Z" fill="#8B3DFF"/><path d="M42.622 67.404h-1.678l-.976-2.535h-5.315l-.976 2.535H32l4.28-10.807h2.063l4.28 10.807Zm-5.337-9.38-2.114 5.5h4.287l-2.114-5.5h-.06ZM43.989 67.404V56.597h5.004c.665 0 1.227.106 1.685.318.464.207.811.502 1.043.887.231.38.347.83.347 1.352 0 1.06-.522 1.802-1.567 2.225v.067c.759.192 1.323.53 1.693 1.013.374.483.561 1.086.561 1.81 0 1.02-.308 1.8-.924 2.337-.616.532-1.562.798-2.838.798h-5.004Zm4.694-6.335c.581 0 1.03-.138 1.345-.414.32-.28.48-.678.48-1.19 0-.542-.15-.944-.45-1.205-.301-.261-.76-.392-1.376-.392h-3.126v3.201h3.127Zm.406 5.004c.685 0 1.198-.157 1.538-.473.34-.32.51-.786.51-1.397 0-.61-.17-1.074-.51-1.39-.34-.315-.853-.473-1.538-.473h-3.533v3.733h3.533ZM59.342 67.559c-.995 0-1.9-.23-2.713-.688a5.015 5.015 0 0 1-1.914-1.958c-.464-.843-.695-1.814-.695-2.913 0-1.099.231-2.07.695-2.912a4.963 4.963 0 0 1 1.914-1.952c.813-.463 1.718-.695 2.713-.695 1.178 0 2.129.23 2.853.688.73.453 1.245 1.064 1.545 1.833l-1.242.91c-.256-.656-.645-1.149-1.167-1.48-.518-.334-1.18-.502-1.989-.502-.71 0-1.345.165-1.907.495-.557.33-.993.806-1.308 1.427-.316.621-.474 1.35-.474 2.188 0 .848.158 1.582.474 2.203.32.616.761 1.089 1.323 1.42.561.324 1.2.487 1.914.487.932 0 1.668-.23 2.21-.687.547-.464.92-1.149 1.117-2.055l1.308.79c-.261 1.026-.774 1.849-1.538 2.47-.763.62-1.803.93-3.119.93Z" fill="#8B3DFF"/></svg>