<svg width="96" height="96" viewBox="0 0 96 96" fill="none" xmlns="http://www.w3.org/2000/svg"><path opacity=".4" d="M37.926 48.617a3.981 3.981 0 0 0 2.074.578h16a4 4 0 0 0 4-4v-2H42l-4.828 4.829a4.017 4.017 0 0 0 .754.593Z" fill="#8B3DFF"/><path opacity=".2" d="M36 43.195v2c0 1.105.447 2.105 1.171 2.829L42 43.195h-6Z" fill="#8B3DFF"/><path opacity=".6" d="m48 37.195-6 6h18v-2l-4-4h-8Z" fill="#8B3DFF"/><g opacity=".4" fill="#8B3DFF"><path d="M36 37.195v6h6l6-6H36ZM56 37.195l4 4v-4h-4Z"/></g><path opacity=".8" d="M56 37.195h-8l2.585-2.585a2 2 0 0 1 2.829 0l2.585 2.585Z" fill="#8B3DFF"/><path opacity=".6" d="M36 31.195v6h12l2.585-2.585a2 2 0 0 1 2.829 0L56 37.195h4v-6H44.95a2.5 2.5 0 1 1-4.9 0H36Z" fill="#8B3DFF"/><path opacity=".4" d="M42.5 34.195a2.5 2.5 0 0 0 2.45-3h-4.9a2.5 2.5 0 0 0 2.45 3Z" fill="#8B3DFF"/><path d="M40 25.195a4 4 0 0 0-4 4v2h4.05a2.501 2.501 0 0 1 4.9 0H60v-2a4 4 0 0 0-4-4H40Z" fill="#8B3DFF"/><path opacity=".6" d="M44.95 31.195h-4.9a2.501 2.501 0 0 1 4.9 0Z" fill="#8B3DFF"/><path d="M41.39 70.805h-2.113l-1.229-3.193h-6.692l-1.23 3.193h-2.112l5.39-13.61H36l5.39 13.61Zm-6.72-11.813-2.663 6.926h5.4l-2.663-6.926h-.075ZM55.822 70.805a7.04 7.04 0 0 1 .798-2.473c.59-1.06 1.393-1.88 2.41-2.457 1.024-.583 2.163-.875 3.417-.875 1.483 0 2.68.289 3.593.866.918.57 1.567 1.34 1.945 2.308l-1.564 1.145c-.322-.825-.812-1.446-1.47-1.862-.652-.421-1.486-.632-2.504-.632-.894 0-1.694.207-2.402.623-.701.416-1.25 1.015-1.647 1.797-.24.47-.407.99-.502 1.56h-2.074Z" fill="#8B3DFF"/><path fill-rule="evenodd" clip-rule="evenodd" d="M43.112 70.805h1.974v-2.377h4.45c.862 0 1.507.199 1.936.596.428.397.642.98.642 1.75v.03h2.038c-.009-.888-.245-1.63-.707-2.227-.465-.608-1.176-1.033-2.132-1.275v-.084c1.316-.534 1.974-1.468 1.974-2.802 0-.657-.146-1.225-.438-1.703-.291-.484-.729-.857-1.312-1.117-.577-.267-1.285-.4-2.123-.4h-6.302v9.609Zm7.606-4.5c-.398.348-.962.522-1.695.522h-3.937v-4.03h3.938c.775 0 1.352.164 1.73.493.38.329.569.835.569 1.517 0 .646-.202 1.145-.605 1.499Z" fill="#8B3DFF"/></svg>