<svg width="96" height="96" viewBox="0 0 96 96" fill="none" xmlns="http://www.w3.org/2000/svg"><path d="M41.228 77.805h-2.113l-1.229-3.193h-6.693l-1.228 3.193h-2.113l5.39-13.61h2.596l5.39 13.61Zm-6.72-11.813-2.663 6.926h5.399l-2.662-6.926h-.075Z" fill="#8B3DFF"/><g opacity=".3" fill="#8B3DFF"><path d="M42.95 77.805v-13.61h6.301c.838 0 1.545.134 2.122.4.584.261 1.021.634 1.313 1.118.292.478.437 1.046.437 1.703 0 1.335-.657 2.269-1.973 2.802v.084c.956.242 1.666.667 2.132 1.275.471.608.707 1.368.707 2.28 0 1.285-.388 2.266-1.163 2.942-.776.67-1.968 1.006-3.575 1.006H42.95Zm5.91-7.978c.732 0 1.297-.174 1.694-.521.404-.354.605-.853.605-1.499 0-.682-.189-1.188-.567-1.517-.38-.329-.956-.493-1.732-.493h-3.937v4.03h3.937Zm.512 6.302c.863 0 1.508-.199 1.936-.596.428-.403.642-.99.642-1.759 0-.77-.214-1.353-.642-1.75-.428-.397-1.073-.596-1.936-.596h-4.45v4.701h4.45ZM62.283 78c-1.253 0-2.392-.289-3.416-.866-1.018-.583-1.821-1.405-2.411-2.466-.583-1.062-.875-2.284-.875-3.668 0-1.384.292-2.606.875-3.668.59-1.06 1.393-1.88 2.41-2.457 1.025-.583 2.164-.875 3.417-.875 1.483 0 2.681.289 3.593.866.919.57 1.567 1.34 1.946 2.308l-1.564 1.145c-.323-.825-.813-1.446-1.47-1.862-.653-.421-1.487-.632-2.505-.632-.894 0-1.694.207-2.401.623-.702.416-1.25 1.015-1.648 1.797-.397.782-.596 1.7-.596 2.755 0 1.067.199 1.992.596 2.774.403.776.959 1.371 1.666 1.787.708.41 1.511.614 2.411.614 1.173 0 2.1-.288 2.783-.865.69-.584 1.158-1.446 1.406-2.588l1.647.996c-.328 1.29-.974 2.327-1.936 3.11-.962.781-2.27 1.172-3.928 1.172Z"/></g><path d="M42.95 72.805v-13.61h6.301c.838 0 1.545.134 2.122.4.584.261 1.021.634 1.313 1.118.292.478.437 1.045.437 1.703 0 1.335-.657 2.269-1.973 2.802v.084c.956.242 1.666.667 2.132 1.275.471.608.707 1.368.707 2.28 0 1.285-.388 2.266-1.163 2.942-.776.67-1.968 1.006-3.575 1.006H42.95Zm5.91-7.978c.732 0 1.297-.174 1.694-.521.404-.354.605-.853.605-1.499 0-.682-.189-1.188-.567-1.517-.38-.329-.956-.493-1.732-.493h-3.937v4.03h3.937Zm.512 6.302c.863 0 1.508-.199 1.936-.596.428-.403.642-.99.642-1.759 0-.77-.214-1.353-.642-1.75-.428-.397-1.073-.596-1.936-.596h-4.45v4.701h4.45ZM62.282 68c-1.253 0-2.392-.289-3.416-.866a6.313 6.313 0 0 1-2.41-2.466c-.584-1.062-.876-2.284-.876-3.668 0-1.384.292-2.606.875-3.668.59-1.06 1.393-1.88 2.411-2.457 1.024-.583 2.163-.875 3.416-.875 1.483 0 2.681.289 3.593.866.919.57 1.567 1.34 1.946 2.308l-1.564 1.145c-.323-.825-.813-1.446-1.47-1.862-.652-.422-1.487-.633-2.505-.633-.893 0-1.694.208-2.401.624-.702.416-1.25 1.015-1.648 1.797-.397.782-.596 1.7-.596 2.755 0 1.067.199 1.992.596 2.774.403.776.959 1.371 1.666 1.787.708.41 1.511.614 2.411.614 1.173 0 2.1-.288 2.783-.865.69-.584 1.158-1.446 1.406-2.588l1.648.996c-.33 1.29-.975 2.327-1.937 3.11-.961.781-2.27 1.172-3.928 1.172Z" fill="#8B3DFF"/><path fill-rule="evenodd" clip-rule="evenodd" d="M71.75 25.25a.75.75 0 0 1 .53.22l3 3a.75.75 0 1 1-1.06 1.06l-1.72-1.72V42a.75.75 0 0 1-1.5 0V27.81l-1.72 1.72a.75.75 0 1 1-1.06-1.06l3-3a.75.75 0 0 1 .53-.22Z" fill="#8B3DFF"/><path opacity=".3" d="M36 46a4 4 0 0 0 4 4h16a4 4 0 0 0 4-4v-8a4 4 0 0 1-4 4H40a4 4 0 0 1-4-4v8Z" fill="#8B3DFF"/><path opacity=".6" d="M40 42h16a4 4 0 0 0 4-4v-4l-6.586-6.586a2 2 0 0 0-2.828 0L37.172 40.83A3.987 3.987 0 0 0 40 42Z" fill="#8B3DFF"/><path fill-rule="evenodd" clip-rule="evenodd" d="M36 22a4 4 0 0 1 4-4h16a4 4 0 0 1 4 4v12l-6.586-6.586a2 2 0 0 0-2.828 0L37.172 40.828A3.987 3.987 0 0 1 36 38V22Zm6.5 5a2.5 2.5 0 1 0 0-5 2.5 2.5 0 0 0 0 5Z" fill="#8B3DFF"/><circle opacity=".6" cx="42.5" cy="24.5" r="2.5" fill="#8B3DFF"/></svg>