<svg width="96" height="96" viewBox="0 0 96 96" fill="none" xmlns="http://www.w3.org/2000/svg"><path opacity=".5" fill-rule="evenodd" clip-rule="evenodd" d="M27.104 72.702a.75.75 0 0 1-1.06 0 6.407 6.407 0 0 1 0-9.06.75.75 0 0 1 1.06 1.06 4.907 4.907 0 0 0 0 6.94.75.75 0 0 1 0 1.06Z" fill="#8B3DFF"/><path opacity=".3" fill-rule="evenodd" clip-rule="evenodd" d="M23.447 74.702a.75.75 0 0 1-1.06 0 9.235 9.235 0 0 1 0-13.06.75.75 0 1 1 1.06 1.06 7.735 7.735 0 0 0 0 10.94.75.75 0 0 1 0 1.06Z" fill="#8B3DFF"/><path d="M39.187 72.172h-1.242l-.722-1.877h-3.935l-.722 1.877h-1.242l3.168-8h1.527l3.168 8Zm-3.95-6.944-1.566 4.07h3.174l-1.565-4.07h-.044ZM41.187 73.672v-11h5.094c.677 0 1.249.108 1.715.323.472.21.825.512 1.061.903.236.386.354.845.354 1.377 0 1.078-.532 1.833-1.595 2.265v.067c.772.196 1.346.54 1.723 1.031.38.492.572 1.106.572 1.843 0 1.039-.314 1.831-.941 2.378-.627.542-1.59.813-2.89.813h-5.093Zm4.778-6.448c.592 0 1.048-.14 1.37-.422.325-.286.488-.69.488-1.211 0-.552-.153-.96-.459-1.226-.306-.266-.772-.4-1.4-.4h-3.182v3.259h3.183Zm.414 5.093c.697 0 1.218-.16 1.565-.481.346-.326.519-.8.519-1.422 0-.622-.173-1.094-.52-1.415-.346-.32-.867-.481-1.564-.481h-3.597v3.8h3.597ZM58.812 75.172c-1.253 0-2.392-.289-3.416-.866a6.314 6.314 0 0 1-2.411-2.467c-.583-1.061-.875-2.284-.875-3.667 0-1.384.292-2.607.875-3.668.59-1.061 1.393-1.88 2.41-2.457 1.025-.584 2.163-.875 3.417-.875 1.483 0 2.68.288 3.593.865.919.571 1.567 1.34 1.946 2.309l-1.564 1.145c-.323-.826-.813-1.446-1.471-1.862-.652-.422-1.486-.633-2.504-.633-.894 0-1.694.208-2.401.624-.702.416-1.251 1.014-1.648 1.796s-.596 1.7-.596 2.756c0 1.067.199 1.992.596 2.774.403.775.959 1.371 1.666 1.787.707.41 1.511.614 2.411.614 1.173 0 2.1-.288 2.783-.865.69-.584 1.158-1.447 1.406-2.588l1.647.996c-.329 1.29-.974 2.327-1.936 3.109s-2.271 1.173-3.928 1.173Z" fill="#8B3DFF"/><path opacity=".5" fill-rule="evenodd" clip-rule="evenodd" d="M68.896 63.641a.75.75 0 0 1 1.06 0 6.407 6.407 0 0 1 0 9.061.75.75 0 0 1-1.06-1.06 4.907 4.907 0 0 0 0-6.94.75.75 0 0 1 0-1.06Z" fill="#8B3DFF"/><path opacity=".3" fill-rule="evenodd" clip-rule="evenodd" d="M72.553 61.641a.75.75 0 0 1 1.06 0 9.235 9.235 0 0 1 0 13.061.75.75 0 0 1-1.06-1.06 7.735 7.735 0 0 0 0-10.94.75.75 0 0 1 0-1.06Z" fill="#8B3DFF"/><path opacity=".6" d="M50.17 53.172h16a4 4 0 0 0 4-4v-4l-6.585-6.586a2 2 0 0 0-2.828 0L47.342 52a3.988 3.988 0 0 0 2.829 1.172Z" fill="#8B3DFF"/><path fill-rule="evenodd" clip-rule="evenodd" d="M46.17 33.171a4 4 0 0 1 4-4h16a4 4 0 0 1 4 4v12l-6.585-6.585a2 2 0 0 0-2.829 0L47.342 52a3.987 3.987 0 0 1-1.172-2.829v-16Zm6.5 5a2.5 2.5 0 1 0 0-5 2.5 2.5 0 0 0 0 5Z" fill="#8B3DFF"/><circle opacity=".6" cx="52.67" cy="35.671" r="2.5" fill="#8B3DFF"/><path opacity=".7" d="M42.035 28.348a4 4 0 0 0-2.829 4.9l4.141 15.454a4.002 4.002 0 0 0 3.695 2.962 3.983 3.983 0 0 1-.871-2.492v-16a4 4 0 0 1 4-4h12.79l-.573-2.137a4 4 0 0 0-4.899-2.828l-15.454 4.141Z" fill="#8B3DFF"/><path opacity=".5" d="M52.955 23.635a4 4 0 0 0-5.465-1.464l-13.856 8a4 4 0 0 0-1.464 5.464l8 13.857a4 4 0 0 0 5.078 1.66 3.988 3.988 0 0 1-1.9-2.45l-4.142-15.455a4 4 0 0 1 2.828-4.899l11.814-3.165-.893-1.548Z" fill="#8B3DFF"/><path opacity=".3" d="M43.97 22a4 4 0 0 0-5.657 0L26.999 33.313a4 4 0 0 0 0 5.657l11.314 11.314a4 4 0 0 0 4.02.99 3.984 3.984 0 0 1-2.163-1.782l-8-13.857a4 4 0 0 1 1.464-5.464l11.733-6.774L43.97 22Z" fill="#8B3DFF"/></svg>