<svg width="96" height="96" viewBox="0 0 96 96" fill="none" xmlns="http://www.w3.org/2000/svg"><path opacity=".6" d="M40 49h16a4 4 0 0 0 4-4v-4l-6.586-6.586a2 2 0 0 0-2.828 0L37.172 47.83A3.987 3.987 0 0 0 40 49Z" fill="#8B3DFF"/><path fill-rule="evenodd" clip-rule="evenodd" d="M36 29a4 4 0 0 1 4-4h16a4 4 0 0 1 4 4v12l-6.586-6.586a2 2 0 0 0-2.828 0L37.17 47.828A3.987 3.987 0 0 1 36 45V29Zm6.5 5a2.5 2.5 0 1 0 0-5 2.5 2.5 0 0 0 0 5Z" fill="#8B3DFF"/><circle opacity=".6" cx="42.5" cy="31.5" r="2.5" fill="#8B3DFF"/><g opacity=".5" fill="#8B3DFF"><path d="M41.228 78.961h-2.113l-1.23-3.192h-6.692l-1.229 3.192h-2.113l5.39-13.609h2.597l5.39 13.61ZM34.507 67.15l-2.662 6.925h5.398l-2.662-6.925h-.074ZM42.95 78.961V65.352h6.302c.837 0 1.545.134 2.122.4.583.261 1.02.633 1.313 1.118.291.477.437 1.045.437 1.703 0 1.334-.658 2.268-1.973 2.802v.084c.955.242 1.666.667 2.131 1.275.472.608.708 1.368.708 2.28 0 1.285-.388 2.266-1.164 2.942-.776.67-1.967 1.005-3.574 1.005H42.95Zm5.91-7.977c.733 0 1.298-.174 1.695-.521.403-.354.605-.854.605-1.499 0-.683-.19-1.188-.568-1.517-.378-.33-.956-.494-1.731-.494h-3.938v4.03h3.938Zm.513 6.302c.862 0 1.508-.199 1.936-.596.428-.403.642-.99.642-1.76 0-.769-.214-1.352-.642-1.75-.428-.396-1.074-.595-1.936-.595h-4.45v4.7h4.45ZM62.284 79.157c-1.254 0-2.392-.289-3.416-.866a6.314 6.314 0 0 1-2.411-2.467c-.584-1.06-.875-2.283-.875-3.667s.291-2.607.875-3.668c.59-1.061 1.393-1.88 2.41-2.457 1.025-.584 2.163-.875 3.417-.875 1.483 0 2.68.288 3.593.865.918.571 1.567 1.34 1.945 2.309l-1.563 1.145c-.323-.826-.813-1.446-1.471-1.862-.652-.422-1.486-.633-2.504-.633-.894 0-1.694.208-2.402.624-.701.416-1.25 1.014-1.647 1.796-.398.782-.596 1.7-.596 2.756 0 1.067.198 1.992.596 2.774.403.775.958 1.371 1.666 1.787.707.41 1.511.614 2.41.614 1.174 0 2.101-.288 2.784-.865.689-.584 1.157-1.446 1.406-2.588l1.647.996c-.329 1.29-.974 2.327-1.936 3.109s-2.271 1.173-3.928 1.173Z"/></g><path fill-rule="evenodd" clip-rule="evenodd" d="M62.414 17.593a.75.75 0 0 1 .75-.75h4.242a.75.75 0 0 1 .75.75v4.243a.75.75 0 1 1-1.5 0v-2.432L62.28 23.78a.75.75 0 1 1-1.06-1.06l4.376-4.377h-2.432a.75.75 0 0 1-.75-.75ZM28.593 22.586a.75.75 0 0 1-.75-.75v-4.243a.75.75 0 0 1 .75-.75h4.243a.75.75 0 1 1 0 1.5h-2.432l4.377 4.377a.75.75 0 1 1-1.061 1.06l-4.377-4.376v2.432a.75.75 0 0 1-.75.75ZM33.586 56.407a.75.75 0 0 1-.75.75h-4.243a.75.75 0 0 1-.75-.75v-4.243a.75.75 0 0 1 1.5 0v2.432l4.377-4.376a.75.75 0 1 1 1.06 1.06l-4.376 4.377h2.432a.75.75 0 0 1 .75.75ZM67.406 51.414a.75.75 0 0 1 .75.75v4.243a.75.75 0 0 1-.75.75h-4.242a.75.75 0 0 1 0-1.5h2.432l-4.377-4.377a.75.75 0 1 1 1.061-1.06l4.376 4.376v-2.432a.75.75 0 0 1 .75-.75Z" fill="#8B3DFF"/></svg>