<svg width="96" height="96" viewBox="0 0 96 96" fill="none" xmlns="http://www.w3.org/2000/svg"><path opacity=".3" fill-rule="evenodd" clip-rule="evenodd" d="M24.702 54.187a.75.75 0 0 1-1.06 0 8.75 8.75 0 0 1 0-12.374.75.75 0 1 1 1.06 1.06 7.25 7.25 0 0 0 0 10.253.75.75 0 0 1 0 1.06Z" fill="#8B3DFF"/><path opacity=".5" fill-rule="evenodd" clip-rule="evenodd" d="M21.874 57.016a.75.75 0 0 1-1.06 0c-4.98-4.98-4.98-13.052 0-18.032a.75.75 0 0 1 1.06 1.061c-4.393 4.393-4.393 11.517 0 15.91a.75.75 0 0 1 0 1.06Z" fill="#8B3DFF"/><path opacity=".3" fill-rule="evenodd" clip-rule="evenodd" d="M71.298 41.813a.75.75 0 0 1 1.06 0 8.75 8.75 0 0 1 0 12.374.75.75 0 0 1-1.06-1.06 7.25 7.25 0 0 0 0-10.253.75.75 0 0 1 0-1.061Z" fill="#8B3DFF"/><path opacity=".5" fill-rule="evenodd" clip-rule="evenodd" d="M74.126 38.984a.75.75 0 0 1 1.06 0c4.98 4.98 4.98 13.052 0 18.032a.75.75 0 0 1-1.06-1.061c4.393-4.393 4.393-11.517 0-15.91a.75.75 0 0 1 0-1.06Z" fill="#8B3DFF"/><path opacity=".2" fill-rule="evenodd" clip-rule="evenodd" d="M55.828 25h-16a4 4 0 0 0-4 4v16a4 4 0 0 0 4 4h16a4 4 0 0 0 4-4V29a4 4 0 0 0-4-4Zm-16-4a8 8 0 0 0-8 8v16a8 8 0 0 0 8 8h16a8 8 0 0 0 8-8V29a8 8 0 0 0-8-8h-16Z" fill="#8B3DFF"/><path opacity=".6" d="M39.828 49h16a4 4 0 0 0 4-4v-4l-6.585-6.586a2 2 0 0 0-2.829 0L37 47.83A3.987 3.987 0 0 0 39.828 49Z" fill="#8B3DFF"/><path fill-rule="evenodd" clip-rule="evenodd" d="M35.828 29a4 4 0 0 1 4-4h16a4 4 0 0 1 4 4v12l-6.586-6.586a2 2 0 0 0-2.828 0L37 47.828A3.987 3.987 0 0 1 35.828 45V29Zm6.5 5a2.5 2.5 0 1 0 0-5 2.5 2.5 0 0 0 0 5Z" fill="#8B3DFF"/><circle opacity=".6" cx="42.328" cy="31.5" r="2.5" fill="#8B3DFF"/><path d="M39.015 72h-1.243l-.722-1.877h-3.934L32.394 72H31.15l3.169-8h1.526l3.169 8Zm-3.951-6.944-1.565 4.071h3.174l-1.565-4.07h-.044ZM41.015 73.5v-11h5.093c.678 0 1.25.108 1.716.324.471.21.825.511 1.06.902.236.387.354.846.354 1.377 0 1.079-.531 1.834-1.595 2.265v.068c.773.195 1.347.539 1.723 1.03.381.492.572 1.107.572 1.844 0 1.038-.314 1.83-.94 2.377-.627.542-1.59.813-2.89.813h-5.093Zm4.777-6.448c.592 0 1.049-.14 1.37-.421.326-.286.489-.69.489-1.212 0-.551-.153-.96-.46-1.226-.305-.266-.772-.399-1.399-.399H42.61v3.258h3.182Zm.414 5.094c.697 0 1.219-.16 1.565-.482.346-.326.52-.8.52-1.422 0-.622-.174-1.093-.52-1.414-.346-.321-.868-.482-1.565-.482H42.61v3.8h3.596ZM58.64 75c-1.254 0-2.393-.289-3.417-.866a6.314 6.314 0 0 1-2.41-2.466c-.584-1.062-.876-2.284-.876-3.668 0-1.384.292-2.606.876-3.668.589-1.06 1.393-1.88 2.41-2.457 1.024-.583 2.163-.875 3.417-.875 1.483 0 2.68.289 3.593.866.918.57 1.567 1.34 1.945 2.308l-1.564 1.145c-.322-.825-.813-1.446-1.47-1.862-.652-.422-1.487-.633-2.504-.633-.894 0-1.694.208-2.402.624-.701.416-1.25 1.015-1.648 1.797-.397.782-.595 1.7-.595 2.755 0 1.067.198 1.992.595 2.774.404.776.96 1.371 1.667 1.787.707.41 1.51.614 2.41.614 1.173 0 2.101-.288 2.784-.865.689-.584 1.157-1.446 1.405-2.588l1.648.996c-.329 1.29-.974 2.327-1.936 3.11-.962.781-2.271 1.172-3.928 1.172Z" fill="#8B3DFF"/></svg>