<svg width="96" height="96" viewBox="0 0 96 96" fill="none" xmlns="http://www.w3.org/2000/svg"><path opacity=".6" d="M40 49.628h16a4 4 0 0 0 4-4v-4l-6.586-6.585a2 2 0 0 0-2.828 0L37.172 48.457A3.988 3.988 0 0 0 40 49.628Z" fill="#8B3DFF"/><path fill-rule="evenodd" clip-rule="evenodd" d="M36 29.628a4 4 0 0 1 4-4h16a4 4 0 0 1 4 4v12l-6.586-6.586a2 2 0 0 0-2.828 0L37.172 48.457A3.987 3.987 0 0 1 36 45.628v-16Zm6.5 5a2.5 2.5 0 1 0 0-5 2.5 2.5 0 0 0 0 5Z" fill="#8B3DFF"/><circle opacity=".6" cx="42.5" cy="32.128" r="2.5" fill="#8B3DFF"/><path d="m40.441 74.439-2.041-.547-.36-3.402-6.465-1.733-2.014 2.766-2.04-.546 8.728-11.75 2.508.671 1.684 14.54Zm-3.434-13.15-4.364 6 5.215 1.398-.78-7.379-.071-.019ZM42.105 74.884l3.522-13.145 6.087 1.631c.81.217 1.458.529 1.947.936.495.403.822.876.978 1.419.158.537.152 1.123-.018 1.758-.345 1.289-1.223 2.02-2.632 2.196l-.021.08c.86.482 1.437 1.076 1.729 1.784.298.71.329 1.505.093 2.386-.333 1.241-.961 2.088-1.885 2.54-.923.447-2.16.462-3.713.046l-6.087-1.63Zm7.774-6.175c.707.19 1.298.167 1.771-.066.481-.237.806-.667.973-1.29.176-.66.124-1.197-.156-1.613-.28-.416-.796-.724-1.545-.925l-3.803-1.019-1.044 3.893 3.804 1.02Zm-1.137 6.22c.834.222 1.508.198 2.025-.075.518-.279.876-.79 1.075-1.533.2-.743.144-1.362-.167-1.857-.31-.494-.883-.853-1.716-1.076l-4.298-1.152-1.217 4.54 4.298 1.152ZM60.73 80.077c-1.212-.324-2.237-.898-3.076-1.72-.833-.827-1.396-1.83-1.69-3.007-.29-1.176-.255-2.432.103-3.77.358-1.336.957-2.441 1.795-3.315.844-.873 1.832-1.456 2.965-1.75 1.14-.298 2.315-.285 3.526.04 1.432.383 2.515.972 3.246 1.765.74.79 1.167 1.7 1.282 2.734l-1.807.7c-.098-.88-.41-1.606-.939-2.178-.52-.576-1.271-.996-2.255-1.26-.863-.23-1.69-.237-2.48-.019-.786.22-1.471.657-2.057 1.31-.586.652-1.016 1.487-1.289 2.506-.276 1.031-.323 1.976-.142 2.834.189.854.571 1.573 1.147 2.157.577.58 1.3.985 2.17 1.218 1.132.303 2.103.265 2.912-.116.816-.385 1.492-1.097 2.027-2.136l1.334 1.389c-.652 1.162-1.543 1.995-2.675 2.502-1.131.506-2.497.545-4.098.116Z" fill="#8B3DFF"/><path opacity=".5" d="M35.379 15.765a4 4 0 0 0-4.9 2.829l-4.14 15.455a4 4 0 0 0 2.828 4.899L36 40.778v-11.15a4 4 0 0 1 4-4h13.441l.22-.823a4 4 0 0 0-2.828-4.898L35.38 15.765Z" fill="#8B3DFF"/><path opacity=".3" d="m44.702 49.628 1.777 6.632a4 4 0 0 0 4.9 2.829l15.454-4.141a4 4 0 0 0 2.829-4.9L65.52 34.595a4 4 0 0 0-4.899-2.829l-.621.167v13.696a4 4 0 0 1-4 4H44.702Z" fill="#8B3DFF"/></svg>