<svg width="96" height="96" viewBox="0 0 96 96" fill="none" xmlns="http://www.w3.org/2000/svg"><path opacity=".3" d="m66.53 70.466-25.685-.006-5.39-13.609 31.077.006a2 2 0 0 1 2 2v9.609a2 2 0 0 1-2.001 2Z" fill="#8B3DFF"/><path d="M40.846 70.46h-2.113l-1.23-3.193h-6.692l-1.229 3.193H27.47l5.39-13.609h2.597l5.39 13.61Zm-6.721-11.812-2.662 6.925h5.398L34.2 58.648h-.074ZM43.591 71.152 40.07 58.007l6.087-1.631c.81-.217 1.527-.271 2.154-.163.63.101 1.15.347 1.556.74.406.386.694.896.864 1.532.345 1.288-.048 2.36-1.181 3.217l.022.08c.985-.013 1.782.214 2.389.68.613.466 1.037 1.14 1.273 2.02.333 1.241.212 2.289-.362 3.143-.576.848-1.64 1.48-3.193 1.896l-6.087 1.631Zm3.645-9.235c.707-.19 1.208-.504 1.501-.942.298-.446.364-.98.197-1.604-.177-.66-.49-1.1-.941-1.319-.451-.22-1.051-.23-1.8-.028l-3.804 1.019 1.044 3.893 3.803-1.02Zm2.126 5.954c.833-.223 1.405-.582 1.715-1.076.31-.5.365-1.122.166-1.866-.2-.743-.557-1.251-1.074-1.524-.516-.273-1.191-.297-2.024-.074l-4.298 1.151 1.217 4.541 4.297-1.151ZM65.347 69.764c-1.086.627-2.216.946-3.392.958a6.314 6.314 0 0 1-3.321-.93c-1.036-.628-1.9-1.54-2.592-2.74-.692-1.198-1.05-2.402-1.076-3.613-.02-1.214.267-2.325.86-3.334.595-1.017 1.435-1.839 2.52-2.465 1.285-.742 2.467-1.091 3.545-1.047 1.08.035 2.027.377 2.84 1.026l-.783 1.774c-.692-.554-1.427-.846-2.204-.877-.776-.04-1.604.195-2.485.703-.774.447-1.364 1.028-1.768 1.741-.4.711-.576 1.504-.529 2.38.047.876.334 1.77.862 2.684.534.924 1.168 1.626 1.903 2.105.737.47 1.516.708 2.336.714.818.001 1.616-.223 2.395-.673 1.016-.587 1.675-1.3 1.978-2.142.305-.85.28-1.83-.077-2.943l1.925.038c.36 1.283.32 2.503-.122 3.661s-1.38 2.151-2.816 2.98Z" fill="#8B3DFF"/><path opacity=".3" d="M36 40.848h24v4a4 4 0 0 1-4 4H40a4 4 0 0 1-4-4v-4Z" fill="#8B3DFF"/><g clip-path="url(#_4286451684__a)" fill="#8B3DFF"><path opacity=".6" d="M40 48.848h16a4 4 0 0 0 4-4v-4l-6.585-6.586a2 2 0 0 0-2.828 0L37.172 47.676a3.987 3.987 0 0 0 2.829 1.172Z"/><path fill-rule="evenodd" clip-rule="evenodd" d="M36 28.848a4 4 0 0 1 4-4h16a4 4 0 0 1 4 4v12l-6.585-6.586a2 2 0 0 0-2.829 0L37.172 47.676a3.987 3.987 0 0 1-1.171-2.828v-16Zm6.5 5a2.5 2.5 0 1 0 0-5 2.5 2.5 0 0 0 0 5Z"/><circle opacity=".6" cx="42.501" cy="31.348" r="2.5"/></g><path fill-rule="evenodd" clip-rule="evenodd" d="M33 40.848a.75.75 0 0 1 .75-.75h28.5a.75.75 0 0 1 0 1.5h-28.5a.75.75 0 0 1-.75-.75Z" fill="#8B3DFF"/><defs><clipPath id="_4286451684__a"><path fill="#fff" transform="translate(36 24.848)" d="M0 0h24v16H0z"/></clipPath></defs></svg>