<svg width="96" height="96" viewBox="0 0 96 96" fill="none" xmlns="http://www.w3.org/2000/svg"><path opacity=".5" fill-rule="evenodd" clip-rule="evenodd" d="M58.361 74.436a7.724 7.724 0 0 1-1.79-1.41 8.05 8.05 0 0 1-1.068-1.424 4.852 4.852 0 0 1-.756 1.573c-.199.27-.43.523-.695.755l-.005.004c-1.167 1.008-2.783 1.37-4.556 1.37H38.324l-1.229-3.192h-4.632l-1.23 3.193h-5.35l6.578-16.61h4.636l4.593 11.597V58.696h7.801c.986 0 1.919.155 2.743.534.82.368 1.506.93 1.975 1.705a4.444 4.444 0 0 1 .527 1.309l.001.004.002.009a5.256 5.256 0 0 1 .112 1.532 8.195 8.195 0 0 1 .53-1.18l.004-.005c.213-.383.45-.743.713-1.078a7.644 7.644 0 0 1 2.268-1.955c1.264-.72 2.661-1.071 4.157-1.071 1.663 0 3.165.322 4.39 1.095 1.18.734 2.045 1.752 2.546 3.033l.42 1.075-3.863 2.828 4.1 2.48-.275 1.078c-.402 1.578-1.212 2.901-2.443 3.902-1.308 1.063-2.99 1.509-4.875 1.509-1.493 0-2.889-.347-4.152-1.059l-.01-.005Zm10.357-8.024 2.174 1.314a1.5 1.5 0 0 1 .678 1.654l-.275 1.079c-.475 1.865-1.451 3.477-2.951 4.696C66.691 76.499 64.636 77 62.524 77c-1.735 0-3.386-.405-4.89-1.252l-.019-.01a9.25 9.25 0 0 1-1.867-1.408 6.188 6.188 0 0 1-.71.73l-.01.01c-1.558 1.345-3.599 1.735-5.537 1.735H38.324a1.5 1.5 0 0 1-1.4-.962l-.859-2.231h-2.572l-.86 2.231a1.5 1.5 0 0 1-1.4.962h-5.35a1.5 1.5 0 0 1-1.394-2.053l6.578-16.609a1.5 1.5 0 0 1 1.394-.947h4.636a1.5 1.5 0 0 1 1.394.947l1.699 4.288v-3.735a1.5 1.5 0 0 1 1.5-1.5h7.801c1.135 0 2.293.177 3.364.669 1.012.455 1.912 1.162 2.553 2.158a9.143 9.143 0 0 1 2.217-1.756C59.13 57.41 60.785 57 62.523 57c1.842 0 3.65.355 5.187 1.324 1.44.898 2.523 2.165 3.146 3.758l.42 1.075a1.5 1.5 0 0 1-.51 1.756l-2.048 1.5Z" fill="#8B3DFF"/><path opacity=".3" fill-rule="evenodd" clip-rule="evenodd" d="M74.477 70.121a4.5 4.5 0 0 0-.85-3.926 4.5 4.5 0 0 0 .443-4.131l-.42-1.075c-.867-2.218-2.386-3.983-4.347-5.207C67.14 54.42 64.723 54 62.523 54c-2.312 0-4.332.652-6.383 1.66-.183.104-.364.213-.54.326a9.325 9.325 0 0 0-1.504-.853c-1.564-.715-3.172-.937-4.605-.937H41.69c-.84 0-1.625.23-2.297.63a4.494 4.494 0 0 0-2.296-.63H32.46a4.5 4.5 0 0 0-4.184 2.843L21.7 73.648a4.5 4.5 0 0 0 4.183 6.157h5.35a4.5 4.5 0 0 0 3.546-1.728 4.5 4.5 0 0 0 3.545 1.728h11.167c1.91 0 4.265-.316 6.36-1.626.09.055.18.108.273.161l.035.02.002.001C58.144 79.48 60.31 80 62.523 80c2.566 0 5.367-.61 7.713-2.517 2.04-1.657 3.344-3.844 3.966-6.283l.275-1.079Zm-18.652 6.237c.332.245.68.472 1.044.68l.029.016c1.743.983 3.651 1.446 5.625 1.446 2.34 0 4.767-.555 6.767-2.181 1.77-1.438 2.91-3.337 3.459-5.49l.274-1.078a3 3 0 0 0-1.355-3.308l-.248-.15.231-.17a2.996 2.996 0 0 0 1.022-3.513l-.42-1.075c-.745-1.905-2.046-3.421-3.746-4.482-1.851-1.166-3.963-1.553-5.984-1.553-1.981 0-3.895.47-5.64 1.463-.474.27-.921.57-1.341.9a7.604 7.604 0 0 0-2.067-1.364c-1.317-.603-2.7-.803-3.984-.803H41.69a2.986 2.986 0 0 0-2.297 1.069 3.004 3.004 0 0 0-2.296-1.07H32.46a3 3 0 0 0-2.79 1.896L23.095 74.2a3 3 0 0 0 2.79 4.105h5.35a3 3 0 0 0 2.8-1.923l.489-1.27h.512l.49 1.27a3 3 0 0 0 2.8 1.922H49.49c2.037 0 4.416-.391 6.334-1.946Z" fill="#8B3DFF"/><path d="M41.466 73.805h-2.113l-1.229-3.193h-6.693l-1.229 3.193H28.09l5.39-13.61h2.597l5.39 13.61Zm-6.72-11.813-2.663 6.926h5.399l-2.663-6.926h-.074ZM43.188 73.805v-13.61h6.302c.838 0 1.545.134 2.122.4.584.261 1.021.634 1.313 1.118.292.478.437 1.045.437 1.703 0 1.335-.657 2.269-1.973 2.802v.084c.956.242 1.666.667 2.132 1.275.471.608.707 1.369.707 2.28 0 1.285-.388 2.266-1.164 2.942-.775.67-1.967 1.006-3.574 1.006h-6.302Zm5.911-7.978c.732 0 1.297-.174 1.694-.521.404-.354.605-.853.605-1.499 0-.682-.19-1.188-.568-1.517-.378-.329-.955-.493-1.731-.493h-3.938v4.03H49.1Zm.512 6.302c.863 0 1.508-.199 1.936-.596.428-.403.642-.99.642-1.759 0-.77-.214-1.353-.642-1.75-.428-.397-1.073-.596-1.936-.596h-4.45v4.701h4.45ZM62.522 74c-1.253 0-2.392-.289-3.416-.866-1.018-.583-1.822-1.405-2.411-2.466-.583-1.062-.875-2.284-.875-3.668 0-1.384.292-2.606.875-3.668.59-1.06 1.393-1.88 2.41-2.457C60.13 60.292 61.27 60 62.523 60c1.483 0 2.68.289 3.593.866.919.57 1.567 1.34 1.946 2.308l-1.564 1.145c-.323-.825-.813-1.446-1.47-1.862-.653-.422-1.487-.633-2.505-.633-.893 0-1.694.208-2.401.624-.702.416-1.251 1.015-1.648 1.797s-.596 1.7-.596 2.755c0 1.067.199 1.992.596 2.774.403.776.959 1.371 1.666 1.787.707.41 1.511.614 2.411.614 1.173 0 2.1-.288 2.783-.865.69-.584 1.158-1.446 1.406-2.588l1.647.996c-.328 1.29-.974 2.327-1.936 3.11-.962.781-2.271 1.172-3.928 1.172Z" fill="#8B3DFF"/><path opacity=".5" fill-rule="evenodd" clip-rule="evenodd" d="M56.662 20.5h-16a5.5 5.5 0 0 0-5.5 5.5v16a5.5 5.5 0 0 0 5.5 5.5h16a5.5 5.5 0 0 0 5.5-5.5V26a5.5 5.5 0 0 0-5.5-5.5Zm-16-1.5a7 7 0 0 0-7 7v16a7 7 0 0 0 7 7h16a7 7 0 0 0 7-7V26a7 7 0 0 0-7-7h-16Z" fill="#8B3DFF"/><path opacity=".3" fill-rule="evenodd" clip-rule="evenodd" d="M56.662 17.5h-16a8.5 8.5 0 0 0-8.5 8.5v16a8.5 8.5 0 0 0 8.5 8.5h16a8.5 8.5 0 0 0 8.5-8.5V26a8.5 8.5 0 0 0-8.5-8.5Zm-16-1.5c-5.523 0-10 4.477-10 10v16c0 5.523 4.477 10 10 10h16c5.523 0 10-4.477 10-10V26c0-5.523-4.477-10-10-10h-16Z" fill="#8B3DFF"/><path opacity=".6" d="M40.662 46h16a4 4 0 0 0 4-4v-4l-6.586-6.586a2 2 0 0 0-2.828 0L37.834 44.83A3.987 3.987 0 0 0 40.662 46Z" fill="#8B3DFF"/><path fill-rule="evenodd" clip-rule="evenodd" d="M36.662 26a4 4 0 0 1 4-4h16a4 4 0 0 1 4 4v12l-6.586-6.586a2 2 0 0 0-2.828 0L37.833 44.828A3.988 3.988 0 0 1 36.662 42V26Zm6.5 5a2.5 2.5 0 1 0 0-5 2.5 2.5 0 0 0 0 5Z" fill="#8B3DFF"/><circle opacity=".6" cx="43.162" cy="28.5" r="2.5" fill="#8B3DFF"/></svg>