<svg width="96" height="96" viewBox="0 0 96 96" fill="none" xmlns="http://www.w3.org/2000/svg"><path opacity=".3" d="M54 49h12a4 4 0 0 0 4-4V29a4 4 0 0 0-4-4H54a4 4 0 0 1 4 4v16a4 4 0 0 1-4 4Z" fill="#8B3DFF"/><path opacity=".7" d="M50 49a4 4 0 0 0 4-4V29a4 4 0 0 0-4-4h-4a4 4 0 0 1 4 4v16a4 4 0 0 1-4 4h4Z" fill="#8B3DFF"/><path opacity=".5" d="M54 49a4 4 0 0 0 4-4V29a4 4 0 0 0-4-4h-4a4 4 0 0 1 4 4v16a4 4 0 0 1-4 4h4Z" fill="#8B3DFF"/><path opacity=".6" d="M30 49h16a4 4 0 0 0 4-4v-4l-6.585-6.586a2 2 0 0 0-2.829 0L27.172 47.83A3.987 3.987 0 0 0 30 49Z" fill="#8B3DFF"/><path fill-rule="evenodd" clip-rule="evenodd" d="M26 29a4 4 0 0 1 4-4h16a4 4 0 0 1 4 4v12l-6.586-6.586a2 2 0 0 0-2.828 0L27.172 47.828A3.988 3.988 0 0 1 26 45V29Zm6.5 5a2.5 2.5 0 1 0 0-5 2.5 2.5 0 0 0 0 5Z" fill="#8B3DFF"/><circle opacity=".6" cx="32.5" cy="31.5" r="2.5" fill="#8B3DFF"/><path opacity=".3" d="m37.241 57.196-5.389 13.609h-6a2 2 0 0 1-2-2v-9.61a2 2 0 0 1 2-2h11.39ZM39.837 57.196l5.39 13.609h1.723v-13.61h-7.113ZM64.575 70.805a6.586 6.586 0 0 1-1.708-.67c-1.017-.584-1.82-1.406-2.41-2.467-.584-1.062-.876-2.284-.876-3.668 0-1.384.292-2.606.875-3.668.59-1.06 1.394-1.88 2.411-2.457a6.543 6.543 0 0 1 1.716-.68H53.252c.837 0 1.545.134 2.122.4.583.261 1.02.634 1.312 1.118.292.478.438 1.045.438 1.703 0 1.335-.658 2.269-1.974 2.802v.084c.956.242 1.667.667 2.132 1.275.472.608.708 1.369.708 2.28 0 1.285-.388 2.266-1.164 2.942-.776.67-1.967 1.006-3.575 1.006h11.324Z" fill="#8B3DFF"/><path d="M45.227 70.805h-2.113l-1.228-3.193h-6.693l-1.229 3.193h-2.113l5.39-13.61h2.597l5.39 13.61Zm-6.72-11.813-2.663 6.926h5.4l-2.663-6.926h-.074ZM46.95 70.805v-13.61h6.302c.837 0 1.545.134 2.122.4.583.261 1.02.634 1.312 1.118.292.478.438 1.045.438 1.703 0 1.335-.658 2.269-1.974 2.802v.084c.956.242 1.667.667 2.132 1.275.472.608.708 1.369.708 2.28 0 1.285-.388 2.266-1.164 2.942-.776.67-1.967 1.006-3.574 1.006H46.95Zm5.91-7.978c.733 0 1.298-.174 1.695-.521.403-.354.605-.853.605-1.499 0-.682-.19-1.188-.568-1.517-.379-.329-.956-.493-1.731-.493h-3.938v4.03h3.938Zm.513 6.302c.862 0 1.508-.199 1.936-.596.428-.403.642-.99.642-1.759 0-.77-.214-1.353-.642-1.75-.428-.397-1.074-.596-1.936-.596h-4.45v4.701h4.45ZM66.284 71c-1.254 0-2.393-.289-3.417-.866-1.017-.583-1.82-1.405-2.41-2.466-.584-1.062-.876-2.284-.876-3.668 0-1.384.292-2.606.875-3.668.59-1.06 1.394-1.88 2.411-2.457 1.024-.583 2.163-.875 3.417-.875 1.483 0 2.68.289 3.593.866.918.57 1.567 1.34 1.945 2.308l-1.564 1.145c-.322-.825-.813-1.446-1.47-1.862-.652-.422-1.487-.633-2.504-.633-.894 0-1.695.208-2.402.624-.701.416-1.25 1.015-1.648 1.797-.397.782-.595 1.7-.595 2.755 0 1.067.198 1.992.595 2.774.404.776.96 1.371 1.667 1.787.707.41 1.51.614 2.41.614 1.173 0 2.101-.288 2.784-.865.689-.584 1.157-1.446 1.405-2.588l1.648.996c-.329 1.29-.974 2.327-1.936 3.11C69.25 70.608 67.94 71 66.284 71Z" fill="#8B3DFF"/></svg>