<svg width="96" height="96" viewBox="0 0 96 96" fill="none" xmlns="http://www.w3.org/2000/svg"><path opacity=".6" d="M50.172 52.987h16a4 4 0 0 0 4-4v-4l-6.586-6.585a2 2 0 0 0-2.829 0L47.343 51.816a3.988 3.988 0 0 0 2.829 1.171Z" fill="#8B3DFF"/><path fill-rule="evenodd" clip-rule="evenodd" d="M46.171 32.987a4 4 0 0 1 4-4h16a4 4 0 0 1 4 4v12l-6.586-6.586a2 2 0 0 0-2.828 0L47.343 51.816a3.987 3.987 0 0 1-1.172-2.829v-16Zm6.5 5a2.5 2.5 0 1 0 0-5 2.5 2.5 0 0 0 0 5Z" fill="#8B3DFF"/><circle opacity=".6" cx="52.671" cy="35.487" r="2.5" fill="#8B3DFF"/><path opacity=".7" d="M42.035 28.164a4 4 0 0 0-2.828 4.9l4.141 15.454a4.002 4.002 0 0 0 3.695 2.962 3.983 3.983 0 0 1-.871-2.492v-16a4 4 0 0 1 4-4h12.79l-.573-2.136a4 4 0 0 0-4.899-2.829l-15.455 4.141Z" fill="#8B3DFF"/><path opacity=".5" d="M52.955 23.451a4 4 0 0 0-5.464-1.464l-13.856 8a4 4 0 0 0-1.464 5.464l8 13.857a4 4 0 0 0 5.078 1.66 3.988 3.988 0 0 1-1.901-2.45l-4.141-15.455a4 4 0 0 1 2.828-4.899L53.85 25l-.894-1.548Z" fill="#8B3DFF"/><path opacity=".3" d="M43.97 21.816a4 4 0 0 0-5.656 0L27 33.129a4 4 0 0 0 0 5.657L38.314 50.1a4 4 0 0 0 4.02.99 3.984 3.984 0 0 1-2.163-1.782l-8-13.857a4 4 0 0 1 1.464-5.464l11.733-6.774-1.397-1.397Z" fill="#8B3DFF"/><g opacity=".3" fill="#8B3DFF"><path d="m39.525 68.2-2.04-.547-.361-3.402-6.465-1.732-2.013 2.766-2.041-.547 8.728-11.75 2.509.672 1.683 14.54Zm-3.434-13.15-4.364 6.001 5.215 1.397-.78-7.378-.071-.02ZM41.189 68.646 44.711 55.5l6.087 1.632c.81.216 1.459.528 1.947.935.496.403.822.876.979 1.42.158.536.152 1.122-.019 1.758-.345 1.288-1.222 2.02-2.631 2.195l-.022.081c.86.481 1.437 1.076 1.73 1.784.297.71.328 1.505.092 2.386-.332 1.24-.96 2.087-1.885 2.54-.923.447-2.16.462-3.713.046l-6.087-1.631Zm7.774-6.176c.707.19 1.298.168 1.772-.065.48-.237.805-.668.972-1.291.176-.66.125-1.197-.156-1.613-.28-.415-.795-.723-1.545-.924l-3.803-1.02-1.043 3.894 3.803 1.019Zm-1.136 6.22c.833.223 1.508.198 2.024-.075.518-.278.877-.79 1.076-1.533.199-.743.143-1.362-.168-1.856-.31-.495-.883-.854-1.716-1.077l-4.297-1.152-1.217 4.541 4.298 1.152ZM59.814 73.838c-1.211-.324-2.236-.897-3.076-1.72a6.314 6.314 0 0 1-1.69-3.007c-.29-1.176-.255-2.432.104-3.769.358-1.336.956-2.442 1.794-3.316.844-.872 1.832-1.455 2.965-1.75 1.14-.298 2.315-.285 3.526.04 1.433.383 2.515.972 3.247 1.766.74.789 1.166 1.7 1.281 2.733l-1.806.701c-.099-.88-.412-1.607-.94-2.179-.52-.576-1.271-.996-2.254-1.26-.863-.23-1.69-.237-2.481-.018-.785.22-1.47.656-2.057 1.309-.586.652-1.015 1.488-1.288 2.507-.277 1.03-.324 1.975-.143 2.833.189.854.571 1.573 1.147 2.158.577.579 1.3.984 2.17 1.217 1.133.304 2.103.265 2.912-.115.817-.386 1.492-1.097 2.028-2.136l1.333 1.388c-.651 1.162-1.543 1.996-2.675 2.502-1.131.507-2.497.545-4.097.117Z"/></g><path d="M41.056 75.16h-2.113l-1.228-3.192h-6.693l-1.229 3.193H27.68l5.39-13.61h2.597l5.39 13.61Zm-6.72-11.812-2.663 6.926h5.4l-2.663-6.926h-.074ZM42.779 75.16V61.553h6.301c.838 0 1.546.133 2.123.4.583.26 1.02.633 1.312 1.117.292.478.438 1.046.438 1.703 0 1.335-.658 2.269-1.974 2.802v.084c.956.242 1.667.667 2.132 1.275.472.609.708 1.369.708 2.281 0 1.285-.388 2.265-1.164 2.942-.776.67-1.967 1.005-3.575 1.005H42.78Zm5.91-7.977c.733 0 1.298-.173 1.695-.52.403-.355.605-.854.605-1.5 0-.682-.19-1.188-.568-1.517-.379-.329-.956-.493-1.731-.493h-3.938v4.03h3.938Zm.513 6.302c.862 0 1.508-.198 1.936-.596.428-.403.642-.99.642-1.759 0-.77-.214-1.353-.642-1.75-.428-.397-1.074-.596-1.936-.596h-4.45v4.701h4.45ZM62.113 75.356c-1.254 0-2.393-.288-3.417-.865-1.017-.584-1.82-1.406-2.41-2.467-.584-1.061-.876-2.284-.876-3.668 0-1.384.292-2.606.876-3.667.59-1.061 1.393-1.88 2.41-2.458 1.024-.583 2.163-.875 3.417-.875 1.483 0 2.68.289 3.593.866.918.57 1.567 1.34 1.945 2.308l-1.564 1.145c-.322-.825-.813-1.446-1.47-1.861-.652-.422-1.487-.633-2.504-.633-.894 0-1.694.208-2.402.623-.701.416-1.25 1.015-1.648 1.797-.397.782-.595 1.7-.595 2.755 0 1.068.198 1.992.595 2.774.404.776.96 1.372 1.667 1.787.707.41 1.51.615 2.41.615 1.173 0 2.101-.289 2.784-.866.689-.583 1.157-1.446 1.405-2.588l1.648.996c-.329 1.291-.974 2.327-1.936 3.11-.962.781-2.271 1.172-3.928 1.172Z" fill="#8B3DFF"/></svg>