<svg width="96" height="96" viewBox="0 0 96 96" fill="none" xmlns="http://www.w3.org/2000/svg"><g clip-path="url(#_2943991640__a)" fill="#8B3DFF"><path opacity=".6" d="M39.574 49h16a4 4 0 0 0 4-4v-4l-6.586-6.586a2 2 0 0 0-2.829 0L36.745 47.83A3.987 3.987 0 0 0 39.574 49Z"/><path fill-rule="evenodd" clip-rule="evenodd" d="M35.573 29a4 4 0 0 1 4-4h16a4 4 0 0 1 4 4v12l-6.586-6.586a2 2 0 0 0-2.828 0L36.745 47.828A3.988 3.988 0 0 1 35.573 45V29Zm6.5 5a2.5 2.5 0 1 0 0-5 2.5 2.5 0 0 0 0 5Z"/><circle opacity=".6" cx="42.073" cy="31.5" r="2.5"/></g><path opacity=".3" d="M49.573 25h6a4 4 0 0 1 4 4v16a4 4 0 0 1-4 4h-6V25Z" fill="#8B3DFF"/><path fill-rule="evenodd" clip-rule="evenodd" d="M49.573 22a.75.75 0 0 1 .75.75v50.5a.75.75 0 1 1-1.5 0v-50.5a.75.75 0 0 1 .75-.75Z" fill="#8B3DFF"/><g opacity=".3" fill="#8B3DFF"><path d="M50.323 70.748c1.077-.12 1.911-.437 2.504-.949.775-.676 1.163-1.657 1.163-2.941 0-.912-.236-1.673-.707-2.28-.466-.609-1.176-1.034-2.132-1.276v-.084c1.316-.534 1.973-1.468 1.973-2.802 0-.657-.145-1.225-.437-1.703-.292-.484-.73-.857-1.313-1.117a4.163 4.163 0 0 0-1.05-.316v1.822c.098.055.188.118.269.188.378.329.567.835.567 1.517 0 .646-.201 1.145-.605 1.499-.072.063-.149.12-.232.172v2.05c.405.096.733.261.986.496.428.397.643.98.643 1.75s-.215 1.356-.643 1.76c-.253.234-.581.4-.986.495v1.72ZM58.868 70.134c1.024.577 2.163.866 3.416.866 1.657 0 2.967-.391 3.928-1.173.962-.782 1.608-1.818 1.936-3.109l-1.647-.996c-.248 1.142-.717 2.005-1.406 2.588-.682.577-1.61.865-2.783.865-.9 0-1.703-.204-2.41-.614-.708-.416-1.264-1.011-1.667-1.787-.397-.782-.596-1.707-.596-2.774 0-1.055.199-1.973.596-2.755.397-.782.946-1.381 1.648-1.797.707-.416 1.508-.623 2.401-.623 1.018 0 1.853.21 2.504.632.658.416 1.148 1.037 1.47 1.862l1.565-1.145c-.379-.968-1.027-1.737-1.946-2.308-.912-.577-2.11-.866-3.593-.866-1.253 0-2.392.292-3.416.875-1.018.577-1.821 1.396-2.411 2.457-.583 1.062-.875 2.284-.875 3.668 0 1.384.292 2.606.875 3.668.59 1.06 1.393 1.883 2.41 2.466Z"/></g><path d="M48.823 57.196H42.95v13.609h5.873v-1.676h-3.9v-4.7h3.9v-1.602h-3.9v-4.03h3.9v-1.601Z" fill="#8B3DFF"/><path fill-rule="evenodd" clip-rule="evenodd" d="M41.228 70.805h-2.113l-1.229-3.193h-6.693l-1.228 3.193h-2.113l5.39-13.61h2.596l5.39 13.61Zm-6.72-11.813-2.663 6.926h5.399l-2.662-6.926h-.075Z" fill="#8B3DFF"/><defs><clipPath id="_2943991640__a"><path fill="#fff" transform="translate(35.573 25)" d="M0 0h14v24H0z"/></clipPath></defs></svg>